<svg width="24" height="24" viewBox="0 0 24 24" fill="none" xmlns="http://www.w3.org/2000/svg">
<g clip-path="url(#clip0_0_657)">
<path fill-rule="evenodd" clip-rule="evenodd" d="M18.4305 3.93449C16.6244 2.12831 13.696 2.12831 11.8898 3.93449L5.54807 10.2762C5.15754 10.6667 4.52438 10.6667 4.13385 10.2762C3.74333 9.88569 3.74333 9.25252 4.13385 8.862L10.4756 2.52028C13.0628 -0.0669475 17.2575 -0.0669475 19.8447 2.52028C22.432 5.1075 22.432 9.30222 19.8447 11.8894L11.314 20.4202C9.45897 22.2752 6.45144 22.2752 4.59645 20.4202C2.74146 18.5652 2.74146 15.5577 4.59645 13.7027L4.60028 13.6989L4.60029 13.6989L11.0406 7.32796C11.0413 7.32725 11.042 7.32654 11.0427 7.32583C12.1409 6.22985 13.9254 6.14693 15.0718 7.29326C16.1945 8.41602 16.1945 10.2364 15.0718 11.3591L10.564 15.8669C10.1734 16.2575 9.54028 16.2575 9.14975 15.8669C8.75923 15.4764 8.75923 14.8432 9.14975 14.4527L13.6576 9.94491C13.9993 9.6032 13.9993 9.04919 13.6576 8.70748C13.3402 8.39008 12.8213 8.3757 12.4548 8.74217L12.451 8.746L12.451 8.74599L6.01066 15.1169C6.01006 15.1175 6.00946 15.1181 6.00885 15.1187C4.93672 16.1928 4.93732 17.9327 6.01066 19.006C7.0846 20.0799 8.82581 20.0799 9.89975 19.006L18.4305 10.4752C20.2367 8.66905 20.2367 5.74066 18.4305 3.93449Z" fill="#FF5A30"/>
</g>
<defs>
<clipPath id="clip0_0_657">
<rect width="24" height="24" fill="white"/>
</clipPath>
</defs>
</svg>
