<svg width="48" height="48" viewBox="0 0 48 48" fill="none" xmlns="http://www.w3.org/2000/svg">
<path d="M33.4623 33.4192V23.6888L39.0715 21.3653C43.5808 19.4975 45.7297 14.3094 43.862 9.80009C41.9942 5.2908 36.8061 3.14167 32.2967 5.00964L1.67353 17.6942L4.20854 21.4795L0 23.2227L3.35569 31.3241L9.18442 28.9098L11.7194 32.6949L25.0202 27.1855V33.4192C23.9261 34.5058 23.2473 36.0101 23.2473 37.6701C23.2473 40.9751 25.9362 43.6641 29.2412 43.6641C30.9014 43.6641 32.4058 42.9853 33.4922 41.8911H48V33.4491H33.4923C33.4823 33.4392 33.4723 33.4292 33.4623 33.4192ZM4.87782 27.6494L3.67473 24.7448L5.80454 23.8626L7.58861 26.5266L4.87782 27.6494ZM12.7733 29.2143L5.91929 18.9797L33.373 7.60802C36.4497 6.33377 39.9892 7.79983 41.2636 10.8764C42.5379 13.953 41.0717 17.4927 37.9952 18.767L12.7733 29.2143ZM27.8327 26.0206L30.6497 24.8537V31.8452C30.1977 31.7359 29.7264 31.6764 29.2412 31.6764C28.7561 31.6764 28.2847 31.7359 27.8327 31.8452V26.0206ZM29.2413 40.8516C27.4871 40.8516 26.0598 39.4243 26.0598 37.6701C26.0598 35.9158 27.4871 34.4886 29.2413 34.4886C30.9956 34.4886 32.4228 35.9158 32.4228 37.6701C32.4227 39.4244 30.9955 40.8516 29.2413 40.8516ZM35.0664 36.2617H45.1876V39.0787H35.0663C35.1756 38.6267 35.2351 38.1554 35.2351 37.6702C35.2351 37.1851 35.1757 36.7138 35.0664 36.2617Z" fill="#FF5A30"/>
</svg>
