<svg width="48" height="48" viewBox="0 0 48 48" fill="none" xmlns="http://www.w3.org/2000/svg">
<g clip-path="url(#clip0_19_2099)">
<path d="M38.0536 2.0894C31.8843 1.44098 26.3377 5.93256 25.6893 12.1018L24.5623 22.824C24.4812 23.5964 25.0415 24.2884 25.8139 24.3696L26.2801 24.4186L25.1041 35.6069C24.5638 40.748 28.3068 45.3702 33.4478 45.9105C38.5889 46.4509 43.2111 42.7079 43.7514 37.5668L44.9274 26.3785L45.3935 26.4275C46.1659 26.5086 46.8579 25.9483 46.9391 25.1759L48.066 14.4537C48.7144 8.28445 44.2229 2.73781 38.0536 2.0894ZM37.7596 4.88649C42.3866 5.3728 45.7553 9.53278 45.2689 14.1597L44.877 17.8892L28.0944 16.1253L28.4864 12.3958C28.9727 7.76886 33.1327 4.40018 37.7596 4.88649ZM27.5064 21.7195L27.8004 18.9224L44.583 20.6863L44.289 23.4834L27.5064 21.7195ZM40.9543 37.2728C40.5761 40.8716 37.3405 43.4917 33.7418 43.1134C30.1431 42.7352 27.523 39.4996 27.9012 35.9009L29.0772 24.7125L42.1303 26.0845L40.9543 37.2728Z" fill="#FF5A30"/>
<path d="M32.171 40.1204L35.9004 40.5123C36.6728 40.5935 37.3648 40.0332 37.446 39.2608C37.5271 38.4884 36.9668 37.7964 36.1944 37.7152L32.465 37.3233C31.6926 37.2421 31.0006 37.8024 30.9194 38.5748C30.8382 39.3472 31.3986 40.0392 32.171 40.1204Z" fill="#FF5A30"/>
<path d="M9.94716 2.08944C3.77789 2.73785 -0.713682 8.28448 -0.0652657 14.4538L1.06168 25.1759C1.14286 25.9483 1.83485 26.5087 2.60722 26.4275L3.0734 26.3785L4.24935 37.5669C4.7897 42.7079 9.41189 46.4509 14.5529 45.9106C19.694 45.3702 23.437 40.748 22.8966 35.607L21.7207 24.4186L22.1869 24.3696C22.9592 24.2884 23.5196 23.5964 23.4384 22.8241L22.3115 12.1019C21.6631 5.93259 16.1164 1.44102 9.94716 2.08944ZM3.71178 23.4834L3.4178 20.6863L20.2004 18.9224L20.4943 21.7195L3.71178 23.4834ZM20.0995 35.9009C20.4778 39.4997 17.8577 42.7352 14.259 43.1135C10.6602 43.4917 7.42468 40.8716 7.04644 37.2729L5.8705 26.0845L18.9236 24.7126L20.0995 35.9009ZM19.9064 16.1253L3.12381 17.8892L2.73183 14.1598C2.24552 9.53282 5.6142 5.37284 10.2411 4.88653C14.8681 4.40022 19.0281 7.7689 19.5144 12.3958L19.9064 16.1253Z" fill="#FF5A30"/>
<path d="M12.0998 40.5124L15.8292 40.1204C16.6016 40.0392 17.1619 39.3473 17.0808 38.5749C16.9996 37.8025 16.3076 37.2422 15.5352 37.3233L11.8058 37.7153C11.0334 37.7965 10.473 38.4885 10.5542 39.2609C10.6354 40.0332 11.3274 40.5936 12.0998 40.5124Z" fill="#FF5A30"/>
</g>
<defs>
<clipPath id="clip0_19_2099">
<rect width="48" height="48" fill="white"/>
</clipPath>
</defs>
</svg>
