<svg width="16" height="17" viewBox="0 0 16 17" fill="none"
    xmlns="http://www.w3.org/2000/svg">
    <path fill-rule="evenodd" clip-rule="evenodd" d="M14.6153 7.54484C14.5204 8.20266 14.2954 8.82788 13.9619 9.40282C13.9869 9.54517 13.9997 9.68905 13.9997 9.83356C13.9997 10.3354 13.8543 10.8158 13.5849 11.2522C13.4504 11.47 13.4158 11.7252 13.4025 11.8939C13.3873 12.0871 13.3924 12.2986 13.4062 12.5018C13.4217 12.7297 13.4497 12.969 13.4818 13.1947C13.2216 13.1188 12.9395 13.0426 12.6704 12.9819C12.4465 12.9314 12.2174 12.8883 12.0099 12.8669C11.8289 12.8482 11.5674 12.8337 11.3335 12.9094C10.8221 13.0747 10.2594 13.1669 9.66636 13.1669C8.96109 13.1669 8.31335 13.0417 7.74559 12.8242C7.60903 12.8304 7.47147 12.8336 7.33301 12.8336C6.52993 12.8336 5.75701 12.7279 5.03385 12.5328C6.08516 13.7487 7.81828 14.5002 9.66636 14.5002C10.3883 14.5002 11.0812 14.3894 11.7198 14.1857C11.7209 14.1857 11.723 14.1857 11.726 14.1856C11.7424 14.1853 11.7879 14.1844 11.8729 14.1932C12.0067 14.207 12.1786 14.2378 12.377 14.2826C12.7719 14.3716 13.2157 14.5031 13.5615 14.6129C14.2949 14.8457 15.0056 14.2057 14.8745 13.4614C14.8181 13.1411 14.7595 12.7501 14.7365 12.4114C14.7249 12.2411 14.7236 12.1014 14.7317 11.9988C14.7351 11.9563 14.7394 11.9296 14.7421 11.9155C15.1172 11.2941 15.333 10.5867 15.333 9.83356C15.333 8.98452 15.0693 8.20922 14.6153 7.54484Z" fill="#787A80"/>
    <path fill-rule="evenodd" clip-rule="evenodd" d="M3.73109 4.29869C2.83245 4.98589 2.33306 5.88798 2.33306 6.83325C2.33306 7.30461 2.45577 7.75858 2.68599 8.18074C2.77367 8.34153 2.79854 8.50739 2.80744 8.61967C2.81714 8.7421 2.8123 8.86793 2.80166 8.9856C2.78034 9.22118 2.72949 9.4881 2.66849 9.75101C2.59715 10.0585 2.50572 10.3865 2.41296 10.6944C2.76512 10.5665 3.15003 10.4353 3.51493 10.3288C3.80985 10.2428 4.10767 10.1681 4.37274 10.1262C4.60108 10.0901 4.93243 10.0546 5.2177 10.1533C5.85792 10.3748 6.57411 10.4999 7.33306 10.4999C8.76451 10.4999 10.0358 10.0555 10.935 9.36781C11.8337 8.68062 12.3331 7.77853 12.3331 6.83325C12.3331 5.88798 11.8337 4.98589 10.935 4.29869C10.0358 3.61103 8.76451 3.16659 7.33306 3.16659C5.90162 3.16659 4.63034 3.61103 3.73109 4.29869ZM2.92116 3.23955C4.07283 2.35886 5.63489 1.83325 7.33306 1.83325C9.03123 1.83325 10.5933 2.35886 11.745 3.23955C12.8973 4.12072 13.6664 5.38529 13.6664 6.83325C13.6664 8.28121 12.8973 9.54579 11.745 10.427C10.5933 11.3076 9.03123 11.8333 7.33306 11.8333C6.43769 11.8333 5.58244 11.6873 4.80591 11.4217C4.80513 11.4239 4.74215 11.4177 4.58098 11.4432C4.39521 11.4726 4.15809 11.5301 3.88836 11.6088C3.35138 11.7655 2.74835 11.9871 2.28902 12.1658C1.49327 12.4755 0.682633 11.7113 0.95074 10.8972C1.09284 10.4657 1.26043 9.92048 1.36966 9.44968C1.42468 9.21251 1.46039 9.01311 1.47375 8.86544C1.47839 8.81419 1.47958 8.77682 1.47932 8.75156C1.17246 8.16519 0.99973 7.51675 0.99973 6.83325C0.99973 5.38529 1.76887 4.12072 2.92116 3.23955Z" fill="#787A80"/>
</svg>
