<svg width="20" height="20" viewBox="0 0 20 20" fill="none" xmlns="http://www.w3.org/2000/svg">
<g clip-path="url(#clip0_0_1100)">
<path d="M9.99992 19.1666C15.0542 19.1666 19.1666 15.0545 19.1666 9.99992C19.1666 9.12749 19.0448 8.26774 18.8037 7.44436C18.6849 7.03948 18.2621 6.80691 17.8561 6.92571C17.4508 7.04414 17.219 7.46842 17.3374 7.8733C17.5372 8.55737 17.6388 9.27314 17.6388 9.99992C17.6388 14.2119 14.2119 17.6388 9.99992 17.6388C5.7879 17.6388 2.36103 14.2119 2.36103 9.99992C2.36103 5.7879 5.7879 2.36103 9.99992 2.36103C11.5307 2.36103 13.0034 2.80862 14.2589 3.65513C14.6084 3.89105 15.0836 3.79836 15.3192 3.44886C15.5549 3.099 15.463 2.62418 15.1131 2.38844C13.6043 1.37111 11.8363 0.833252 9.99992 0.833252C4.94568 0.833252 0.833252 4.94531 0.833252 9.99992C0.833252 15.0545 4.94568 19.1666 9.99992 19.1666Z" fill="#FF5A30"/>
<path d="M18.5772 1.91057L9.99977 10.4876L7.25563 7.74391C6.9301 7.41859 6.40276 7.41859 6.07724 7.74391C5.75192 8.06943 5.75192 8.59677 6.07724 8.92229L9.41057 12.2556C9.57354 12.4186 9.78635 12.4998 9.99977 12.4998C10.2132 12.4998 10.426 12.4186 10.589 12.2556L19.7556 3.08896C20.0809 2.76344 20.0809 2.23609 19.7556 1.91057C19.4301 1.58526 18.9028 1.58526 18.5772 1.91057Z" fill="#FF5A30"/>
</g>
<defs>
<clipPath id="clip0_0_1100">
<rect width="20" height="20" fill="white"/>
</clipPath>
</defs>
</svg>
