<svg width="16" height="17" viewBox="0 0 16 17" fill="none" xmlns="http://www.w3.org/2000/svg">
<path d="M8.66669 4.83341C8.66669 4.46522 8.36821 4.16675 8.00002 4.16675C7.63183 4.16675 7.33335 4.46522 7.33335 4.83341V8.50008C7.33335 8.67689 7.40359 8.84646 7.52862 8.97149L9.52861 10.9715C9.78896 11.2318 10.2111 11.2318 10.4714 10.9715C10.7318 10.7111 10.7318 10.289 10.4714 10.0287L8.66669 8.22394V4.83341Z" fill="#787A80"/>
<path fill-rule="evenodd" clip-rule="evenodd" d="M8.00002 1.16675C3.94993 1.16675 0.666687 4.44999 0.666687 8.50008C0.666687 12.5502 3.94993 15.8334 8.00002 15.8334C12.0501 15.8334 15.3334 12.5502 15.3334 8.50008C15.3334 4.44999 12.0501 1.16675 8.00002 1.16675ZM2.00002 8.50008C2.00002 5.18637 4.68631 2.50008 8.00002 2.50008C11.3137 2.50008 14 5.18637 14 8.50008C14 11.8138 11.3137 14.5001 8.00002 14.5001C4.68631 14.5001 2.00002 11.8138 2.00002 8.50008Z" fill="#787A80"/>
</svg>
