<svg width="20" height="20" viewBox="0 0 20 20" fill="none" xmlns="http://www.w3.org/2000/svg">
<path d="M14.6357 0.83715L12.3214 0.833336C9.72122 0.833336 8.0409 2.60424 8.0409 5.34519V7.42546H5.71389C5.51281 7.42546 5.34998 7.59292 5.34998 7.79948V10.8136C5.34998 11.0201 5.51299 11.1874 5.71389 11.1874H8.0409V18.7928C8.0409 18.9994 8.20373 19.1667 8.40482 19.1667H11.4409C11.642 19.1667 11.8048 18.9992 11.8048 18.7928V11.1874H14.5256C14.7267 11.1874 14.8896 11.0201 14.8896 10.8136L14.8907 7.79948C14.8907 7.7003 14.8522 7.60532 14.7841 7.53513C14.716 7.46494 14.6231 7.42546 14.5266 7.42546H11.8048V5.66199C11.8048 4.8144 12.0014 4.38412 13.0763 4.38412L14.6354 4.38354C14.8363 4.38354 14.9991 4.21608 14.9991 4.00972V1.21098C14.9991 1.0048 14.8365 0.837532 14.6357 0.83715Z" fill="white"/>
</svg>
