<svg width="16" height="16" viewBox="0 0 16 16" fill="none" xmlns="http://www.w3.org/2000/svg">
<path fill-rule="evenodd" clip-rule="evenodd" d="M7.99925 13.272C4.93321 11.5257 3.22318 9.79004 2.39626 8.2841C1.54992 6.74277 1.62377 5.44459 2.0934 4.52322C3.05872 2.6294 5.80378 2.02382 7.4763 4.13914L7.99921 4.8005L8.52217 4.13917C10.195 2.02376 12.9402 2.62945 13.9055 4.52322C14.3751 5.44457 14.4489 6.74275 13.6025 8.28408C12.7756 9.79003 11.0654 11.5257 7.99925 13.272ZM7.99928 2.73775C5.64647 0.502007 2.17555 1.42603 0.905488 3.91772C0.20846 5.28519 0.198939 7.05261 1.22753 8.92585C2.247 10.7825 4.2796 12.7422 7.67675 14.6199L7.99924 14.7981L8.32173 14.6199C11.719 12.7422 13.7517 10.7825 14.7712 8.92586C15.7999 7.05263 15.7904 5.28521 15.0934 3.91772C13.8233 1.42599 10.3523 0.502041 7.99928 2.73775Z" fill="#FF5A30"/>
</svg>
