<svg width="20" height="20" viewBox="0 0 20 20" fill="none" xmlns="http://www.w3.org/2000/svg">
<path d="M18.3292 18.3333L18.3334 18.3326V12.2201C18.3334 9.22986 17.6896 6.92639 14.1938 6.92639C12.5132 6.92639 11.3854 7.84861 10.925 8.72292H10.8764V7.20555H7.56182V18.3326H11.0132V12.8229C11.0132 11.3722 11.2882 9.96944 13.0847 9.96944C14.8549 9.96944 14.8813 11.625 14.8813 12.916V18.3333H18.3292Z" fill="white"/>
<path d="M1.94168 7.20625H5.39724V18.3333H1.94168V7.20625Z" fill="white"/>
<path d="M3.66808 1.66666C2.56321 1.66666 1.66669 2.56319 1.66669 3.66805C1.66669 4.77291 2.56321 5.68819 3.66808 5.68819C4.77294 5.68819 5.66946 4.77291 5.66946 3.66805C5.66877 2.56319 4.77224 1.66666 3.66808 1.66666Z" fill="white"/>
</svg>
