<svg width="20" height="20" viewBox="0 0 20 20" fill="none" xmlns="http://www.w3.org/2000/svg">
<path fill-rule="evenodd" clip-rule="evenodd" d="M12.0003 15.5834C12.5837 16.0001 13.3337 15.6667 13.3337 14.9167V11.1667L10.2503 14.2501L12.0003 15.5834Z" fill="white"/>
<path fill-rule="evenodd" clip-rule="evenodd" d="M17.2503 4.41675C16.917 4.08341 16.417 4.08341 16.0837 4.41675L13.3337 7.16675V5.08341C13.3337 4.41675 12.5003 4.00008 12.0003 4.41675L9.66699 6.33341C9.33366 6.50008 9.00033 6.66675 8.58366 6.66675H6.66699C5.75033 6.66675 5.00033 7.41675 5.00033 8.33341V11.6667C5.00033 12.5834 5.75033 13.3334 6.66699 13.3334H7.16699L4.41699 16.0834C4.08366 16.4167 4.08366 16.9167 4.41699 17.2501C4.75033 17.5834 5.25033 17.5834 5.58366 17.2501L17.2503 5.58341C17.5837 5.25008 17.5837 4.75008 17.2503 4.41675Z" fill="white"/>
</svg>
