<svg width="16" height="17" viewBox="0 0 16 17" fill="none" xmlns="http://www.w3.org/2000/svg">
<path fill-rule="evenodd" clip-rule="evenodd" d="M8.00001 5.66659C7.26363 5.66659 6.66668 6.26354 6.66668 6.99992C6.66668 7.7363 7.26363 8.33325 8.00001 8.33325C8.73639 8.33325 9.33334 7.7363 9.33334 6.99992C9.33334 6.26354 8.73639 5.66659 8.00001 5.66659ZM5.33334 6.99992C5.33334 5.52716 6.52725 4.33325 8.00001 4.33325C9.47277 4.33325 10.6667 5.52716 10.6667 6.99992C10.6667 8.47268 9.47277 9.66659 8.00001 9.66659C6.52725 9.66659 5.33334 8.47268 5.33334 6.99992Z" fill="#787A80"/>
<path fill-rule="evenodd" clip-rule="evenodd" d="M8.00001 2.66659C5.58698 2.66659 3.66668 4.55729 3.66668 6.84607C3.66668 8.71195 4.78802 10.5965 6.01377 12.0787C6.61551 12.8064 7.21896 13.4092 7.67232 13.83C7.7936 13.9426 7.90382 14.0419 8.00001 14.1267C8.0962 14.0419 8.20642 13.9426 8.3277 13.83C8.78106 13.4092 9.38451 12.8064 9.98625 12.0787C11.212 10.5965 12.3333 8.71195 12.3333 6.84607C12.3333 4.55729 10.413 2.66659 8.00001 2.66659ZM8.00001 14.9999C7.58746 15.5236 7.58731 15.5235 7.58714 15.5233L7.58548 15.522L7.58168 15.519L7.56877 15.5087C7.55782 15.5 7.54227 15.4874 7.52241 15.4712C7.4827 15.4388 7.42574 15.3917 7.35399 15.3309C7.21056 15.2093 7.0077 15.0323 6.7652 14.8072C6.28106 14.3578 5.63451 13.7124 4.98625 12.9284C3.712 11.3875 2.33334 9.19512 2.33334 6.84607C2.33334 3.78194 4.89019 1.33325 8.00001 1.33325C11.1098 1.33325 13.6667 3.78194 13.6667 6.84607C13.6667 9.19512 12.288 11.3875 11.0138 12.9284C10.3655 13.7124 9.71896 14.3578 9.23482 14.8072C8.99232 15.0323 8.78946 15.2093 8.64603 15.3309C8.57428 15.3917 8.51732 15.4388 8.47761 15.4712C8.45775 15.4874 8.4422 15.5 8.43126 15.5087L8.41834 15.519L8.41454 15.522L8.41332 15.523C8.41315 15.5231 8.41256 15.5236 8.00001 14.9999ZM8.00001 14.9999L8.41256 15.5236C8.17056 15.7142 7.82913 15.714 7.58714 15.5233L8.00001 14.9999Z" fill="#787A80"/>
</svg>
