<svg width="24" height="24" viewBox="0 0 24 24" fill="none" xmlns="http://www.w3.org/2000/svg">
<path d="M22.5 5.77249C21.7271 6.10042 20.8978 6.32282 20.0264 6.42212C20.9161 5.91196 21.5972 5.10278 21.92 4.14155C21.0854 4.61398 20.1642 4.95703 19.1826 5.143C18.3966 4.3401 17.2785 3.84 16.0384 3.84C13.6593 3.84 11.7303 5.68706 11.7303 7.96385C11.7303 8.28676 11.7683 8.60214 11.8418 8.90373C8.26201 8.73156 5.08768 7.08932 2.96314 4.59388C2.59176 5.20204 2.38049 5.91068 2.38049 6.66712C2.38049 8.0983 3.14161 9.36108 4.2964 10.0999C3.5904 10.0773 2.92639 9.89131 2.34508 9.5822V9.63372C2.34508 11.6316 3.83056 13.2989 5.80024 13.6784C5.43936 13.7714 5.05882 13.8229 4.66514 13.8229C4.38696 13.8229 4.11794 13.7965 3.85417 13.7463C4.40267 15.386 5.99315 16.5784 7.87756 16.6111C6.40388 17.7169 4.54573 18.374 2.52749 18.374C2.17976 18.374 1.83724 18.3539 1.5 18.3175C3.40671 19.4898 5.67036 20.1733 8.10327 20.1733C16.028 20.1733 20.3597 13.8883 20.3597 8.43757L20.3453 7.90356C21.1917 7.32552 21.9239 6.59927 22.5 5.77249Z" fill="white"/>
</svg>
