<svg width="20" height="20" viewBox="0 0 20 20" fill="none" xmlns="http://www.w3.org/2000/svg">
<path d="M18.75 4.81041C18.1059 5.08369 17.4148 5.26902 16.6887 5.35176C17.4301 4.92663 17.9976 4.25232 18.2666 3.45129C17.5711 3.84499 16.8035 4.13086 15.9855 4.28583C15.3305 3.61675 14.3988 3.2 13.3653 3.2C11.3827 3.2 9.77523 4.73922 9.77523 6.63654C9.77523 6.90563 9.80694 7.16845 9.86819 7.41977C6.88501 7.2763 4.23973 5.90777 2.46928 3.82823C2.1598 4.33503 1.98374 4.92557 1.98374 5.55593C1.98374 6.74858 2.618 7.8009 3.58033 8.41657C2.992 8.39773 2.43866 8.24276 1.95423 7.98517V8.0281C1.95423 9.69297 3.19213 11.0824 4.83353 11.3987C4.5328 11.4762 4.21568 11.5191 3.88761 11.5191C3.6558 11.5191 3.43161 11.4971 3.2118 11.4552C3.66889 12.8217 4.99429 13.8154 6.56463 13.8426C5.33657 14.764 3.7881 15.3117 2.10624 15.3117C1.81646 15.3117 1.53103 15.2949 1.25 15.2645C2.83893 16.2415 4.7253 16.8111 6.75273 16.8111C13.3566 16.8111 16.9665 11.5736 16.9665 7.03131L16.9544 6.5863C17.6597 6.1046 18.2699 5.4994 18.75 4.81041Z" fill="white"/>
</svg>
