<svg width="142" height="24" viewBox="0 0 142 24" fill="none" xmlns="http://www.w3.org/2000/svg">
<g clip-path="url(#clip0_184_2117)">
<path d="M0 12.1091C0 5.45458 3.60461 1.41821 9.50308 1.41821C13.9815 1.41821 17.5862 4.14549 18.2415 8.18185C18.3508 8.61821 18.0231 8.94549 17.5862 8.94549H14.7462C14.4185 8.94549 14.2 8.7273 14.0908 8.40003C13.5446 6.3273 11.7969 5.01821 9.50308 5.01821C6.33538 5.01821 4.36923 7.74549 4.36923 12.1091C4.36923 16.4728 6.33538 19.2 9.61231 19.2C11.9062 19.2 13.5446 18 14.2 16.0364C14.3092 15.7091 14.5277 15.4909 14.8554 15.4909H17.6954C18.1323 15.4909 18.46 15.9273 18.3508 16.2546C17.6954 20.1819 14.2 22.8 9.61231 22.8C3.60462 22.8 0 18.6546 0 12.1091Z" fill="white"/>
<path d="M26.5428 22.2549H23.3751C23.0474 22.2549 22.8289 22.0367 22.8289 21.7094V2.83667C22.8289 2.40031 23.2659 1.96395 23.7028 1.96395H31.3489C35.8274 1.96395 38.5582 4.47304 38.5582 8.40031C38.5582 10.6912 37.4659 12.7639 35.6089 13.8549C35.172 14.073 35.0628 14.6185 35.2812 14.9458L38.6674 21.3821C38.8859 21.7094 38.5582 22.1458 38.2305 22.1458H34.6259C34.4074 22.1458 34.1889 22.0367 34.0797 21.8185L30.912 15.273C30.8028 14.9458 30.4751 14.8367 30.1474 14.8367H27.6351C27.3074 14.8367 27.0889 15.0549 27.0889 15.3821V21.8185C27.1982 22.0367 26.8705 22.2549 26.5428 22.2549ZM27.1982 11.1276C27.1982 11.4549 27.4166 11.673 27.7443 11.673H31.0212C33.2059 11.673 34.4074 10.473 34.4074 8.5094C34.4074 6.54577 33.0966 5.34577 31.0212 5.34577H27.8535C27.5259 5.34577 27.3074 5.56395 27.3074 5.89122V11.1276H27.1982Z" fill="white"/>
<path d="M56.2537 22.2549H44.2383C43.8014 22.2549 43.4737 21.9276 43.4737 21.4912V2.72758C43.4737 2.29122 43.8014 1.96395 44.2383 1.96395H56.2537C56.6906 1.96395 57.0183 2.29122 57.0183 2.72758V4.80031C57.0183 5.23667 56.6906 5.56395 56.2537 5.56395H48.2798C47.9521 5.56395 47.7337 5.78213 47.7337 6.1094V9.81849C47.7337 10.1458 47.9521 10.3639 48.2798 10.3639H55.7075C56.1445 10.3639 56.4721 10.6912 56.4721 11.1276V12.9821C56.4721 13.4185 56.1445 13.7458 55.7075 13.7458H48.2798C47.9521 13.7458 47.7337 13.9639 47.7337 14.2912V18.4367C47.7337 18.7639 47.9521 18.9821 48.2798 18.9821H56.2537C56.6906 18.9821 57.0183 19.3094 57.0183 19.7458V21.8185C57.0183 21.9276 56.6906 22.2549 56.2537 22.2549Z" fill="white"/>
<path d="M73.1846 17.3458H66.9584C66.6307 17.3458 66.4123 17.5639 66.303 17.7821L65.1015 21.8185C64.9923 22.1458 64.7738 22.2549 64.4461 22.2549H61.6061C61.1692 22.2549 60.8415 21.8185 60.9507 21.3821L67.5046 2.40031C67.6138 2.18213 67.8323 1.96395 68.16 1.96395H72.2015C72.5292 1.96395 72.7476 2.18213 72.8569 2.40031L79.4107 21.3821C79.5199 21.8185 79.1923 22.2549 78.7553 22.2549H75.5876C75.2599 22.2549 75.0415 22.0367 74.9323 21.8185L73.7307 17.7821C73.7307 17.5639 73.403 17.3458 73.1846 17.3458ZM67.8323 14.1821H72.3107C72.5292 14.1821 72.6384 13.9639 72.6384 13.7458L70.2353 6.1094H70.0169L67.6138 13.7458C67.5046 13.9639 67.6138 14.1821 67.8323 14.1821Z" fill="white"/>
<path d="M86.2925 21.4916V6.00074C86.2925 5.67346 86.074 5.45528 85.7463 5.45528H80.9402C80.5033 5.45528 80.0663 5.12801 80.0663 4.58256V2.72801C80.0663 2.29165 80.394 1.85528 80.9402 1.85528H95.7955C96.2324 1.85528 96.6694 2.18255 96.6694 2.72801V4.58256C96.6694 5.01892 96.3417 5.45528 95.7955 5.45528H90.9894C90.6617 5.45528 90.4432 5.67346 90.4432 6.00074V21.6007C90.4432 22.0371 90.1155 22.3644 89.6786 22.3644H86.9479C86.6202 22.2553 86.2925 21.928 86.2925 21.4916Z" fill="white"/>
<path d="M113.381 22.2549H101.366C100.929 22.2549 100.601 21.9276 100.601 21.4912V2.72758C100.601 2.29122 100.929 1.96395 101.366 1.96395H113.381C113.818 1.96395 114.146 2.29122 114.146 2.72758V4.80031C114.146 5.23667 113.818 5.56395 113.381 5.56395H105.408C105.08 5.56395 104.861 5.78213 104.861 6.1094V9.81849C104.861 10.1458 105.08 10.3639 105.408 10.3639H112.835C113.272 10.3639 113.6 10.6912 113.6 11.1276V12.9821C113.6 13.4185 113.272 13.7458 112.835 13.7458H105.408C105.08 13.7458 104.861 13.9639 104.861 14.2912V18.4367C104.861 18.7639 105.08 18.9821 105.408 18.9821H113.381C113.818 18.9821 114.146 19.3094 114.146 19.7458V21.8185C114.146 21.9276 113.818 22.2549 113.381 22.2549Z" fill="white"/>
<path d="M128.564 10.5822L121.792 1.74585C121.355 1.30949 120.809 1.09131 120.263 1.09131C119.717 1.09131 119.171 1.30949 118.734 1.74585C117.969 2.61858 117.969 3.92767 118.734 4.8004L124.086 12.0004L118.734 19.2004C117.969 20.0731 117.969 21.3822 118.734 22.2549C119.171 22.6913 119.717 22.9095 120.263 22.9095C120.809 22.9095 121.355 22.6913 121.792 22.2549L128.564 13.4186C129.329 12.764 129.329 11.4549 128.564 10.5822Z" fill="#FF5A30"/>
<path d="M131.451 10.5822L138.223 1.74585C138.66 1.30949 139.207 1.09131 139.753 1.09131C140.299 1.09131 140.845 1.30949 141.282 1.74585C142.047 2.61858 142.047 3.92767 141.282 4.8004L135.93 12.0004L141.282 19.2004C142.047 20.0731 142.047 21.3822 141.282 22.2549C140.845 22.6913 140.299 22.9095 139.753 22.9095C139.207 22.9095 138.66 22.6913 138.223 22.2549L131.451 13.4186C130.686 12.764 130.686 11.4549 131.451 10.5822Z" fill="#FF5A30"/>
</g>
<defs>
<clipPath id="clip0_184_2117">
<rect width="142" height="24" fill="white"/>
</clipPath>
</defs>
</svg>
