<?xml version="1.0" encoding="utf-8"?><svg xmlns="http://www.w3.org/2000/svg" xmlns:xlink="http://www.w3.org/1999/xlink"><symbol viewBox="0 0 24 24" id="arrow-swiper" xmlns="http://www.w3.org/2000/svg"><path fill-rule="evenodd" clip-rule="evenodd" d="M9.20711 17.2071C8.81658 17.5976 8.18342 17.5976 7.79289 17.2071L3.29289 12.7071C2.90237 12.3166 2.90237 11.6834 3.29289 11.2929L7.79289 6.79289C8.18342 6.40237 8.81658 6.40237 9.20711 6.79289C9.59763 7.18342 9.59763 7.81658 9.20711 8.20711L6.41421 11L20 11C20.5523 11 21 11.4477 21 12C21 12.5523 20.5523 13 20 13L6.41421 13L9.20711 15.7929C9.59763 16.1834 9.59763 16.8166 9.20711 17.2071Z"/></symbol><symbol viewBox="0 0 28 20" id="braces" xmlns="http://www.w3.org/2000/svg"><path d="M18 8.92534C18 8.63119 18.1295 8.35196 18.3541 8.16195L28 0V19C28 19.5523 27.5523 20 27 20H19C18.4477 20 18 19.5523 18 19V8.92534Z"/><path d="M0 8.92534C0 8.63119 0.129507 8.35196 0.354058 8.16195L10 0V19C10 19.5523 9.55228 20 9 20H1C0.447715 20 0 19.5523 0 19V8.92534Z"/></symbol><symbol viewBox="0 0 16 17" id="chat" xmlns="http://www.w3.org/2000/svg"><path fill-rule="evenodd" clip-rule="evenodd" d="M14.6153 7.54484C14.5204 8.20266 14.2954 8.82788 13.9619 9.40282C13.9869 9.54517 13.9997 9.68905 13.9997 9.83356C13.9997 10.3354 13.8543 10.8158 13.5849 11.2522C13.4504 11.47 13.4158 11.7252 13.4025 11.8939C13.3873 12.0871 13.3924 12.2986 13.4062 12.5018C13.4217 12.7297 13.4497 12.969 13.4818 13.1947C13.2216 13.1188 12.9395 13.0426 12.6704 12.9819C12.4465 12.9314 12.2174 12.8883 12.0099 12.8669C11.8289 12.8482 11.5674 12.8337 11.3335 12.9094C10.8221 13.0747 10.2594 13.1669 9.66636 13.1669C8.96109 13.1669 8.31335 13.0417 7.74559 12.8242C7.60903 12.8304 7.47147 12.8336 7.33301 12.8336C6.52993 12.8336 5.75701 12.7279 5.03385 12.5328C6.08516 13.7487 7.81828 14.5002 9.66636 14.5002C10.3883 14.5002 11.0812 14.3894 11.7198 14.1857C11.7209 14.1857 11.723 14.1857 11.726 14.1856C11.7424 14.1853 11.7879 14.1844 11.8729 14.1932C12.0067 14.207 12.1786 14.2378 12.377 14.2826C12.7719 14.3716 13.2157 14.5031 13.5615 14.6129C14.2949 14.8457 15.0056 14.2057 14.8745 13.4614C14.8181 13.1411 14.7595 12.7501 14.7365 12.4114C14.7249 12.2411 14.7236 12.1014 14.7317 11.9988C14.7351 11.9563 14.7394 11.9296 14.7421 11.9155C15.1172 11.2941 15.333 10.5867 15.333 9.83356C15.333 8.98452 15.0693 8.20922 14.6153 7.54484Z"/><path fill-rule="evenodd" clip-rule="evenodd" d="M3.73109 4.29869C2.83245 4.98589 2.33306 5.88798 2.33306 6.83325C2.33306 7.30461 2.45577 7.75858 2.68599 8.18074C2.77367 8.34153 2.79854 8.50739 2.80744 8.61967C2.81714 8.7421 2.8123 8.86793 2.80166 8.9856C2.78034 9.22118 2.72949 9.4881 2.66849 9.75101C2.59715 10.0585 2.50572 10.3865 2.41296 10.6944C2.76512 10.5665 3.15003 10.4353 3.51493 10.3288C3.80985 10.2428 4.10767 10.1681 4.37274 10.1262C4.60108 10.0901 4.93243 10.0546 5.2177 10.1533C5.85792 10.3748 6.57411 10.4999 7.33306 10.4999C8.76451 10.4999 10.0358 10.0555 10.935 9.36781C11.8337 8.68062 12.3331 7.77853 12.3331 6.83325C12.3331 5.88798 11.8337 4.98589 10.935 4.29869C10.0358 3.61103 8.76451 3.16659 7.33306 3.16659C5.90162 3.16659 4.63034 3.61103 3.73109 4.29869ZM2.92116 3.23955C4.07283 2.35886 5.63489 1.83325 7.33306 1.83325C9.03123 1.83325 10.5933 2.35886 11.745 3.23955C12.8973 4.12072 13.6664 5.38529 13.6664 6.83325C13.6664 8.28121 12.8973 9.54579 11.745 10.427C10.5933 11.3076 9.03123 11.8333 7.33306 11.8333C6.43769 11.8333 5.58244 11.6873 4.80591 11.4217C4.80513 11.4239 4.74215 11.4177 4.58098 11.4432C4.39521 11.4726 4.15809 11.5301 3.88836 11.6088C3.35138 11.7655 2.74835 11.9871 2.28902 12.1658C1.49327 12.4755 0.682633 11.7113 0.95074 10.8972C1.09284 10.4657 1.26043 9.92048 1.36966 9.44968C1.42468 9.21251 1.46039 9.01311 1.47375 8.86544C1.47839 8.81419 1.47958 8.77682 1.47932 8.75156C1.17246 8.16519 0.99973 7.51675 0.99973 6.83325C0.99973 5.38529 1.76887 4.12072 2.92116 3.23955Z"/></symbol><symbol viewBox="0 0 20 20" id="check" xmlns="http://www.w3.org/2000/svg"><g clip-path="url(#adclip0_0_1100)"><path d="M9.99992 19.1666C15.0542 19.1666 19.1666 15.0545 19.1666 9.99992C19.1666 9.12749 19.0448 8.26774 18.8037 7.44436C18.6849 7.03948 18.2621 6.80691 17.8561 6.92571C17.4508 7.04414 17.219 7.46842 17.3374 7.8733C17.5372 8.55737 17.6388 9.27314 17.6388 9.99992C17.6388 14.2119 14.2119 17.6388 9.99992 17.6388C5.7879 17.6388 2.36103 14.2119 2.36103 9.99992C2.36103 5.7879 5.7879 2.36103 9.99992 2.36103C11.5307 2.36103 13.0034 2.80862 14.2589 3.65513C14.6084 3.89105 15.0836 3.79836 15.3192 3.44886C15.5549 3.099 15.463 2.62418 15.1131 2.38844C13.6043 1.37111 11.8363 0.833252 9.99992 0.833252C4.94568 0.833252 0.833252 4.94531 0.833252 9.99992C0.833252 15.0545 4.94568 19.1666 9.99992 19.1666Z"/><path d="M18.5772 1.91057L9.99977 10.4876L7.25563 7.74391C6.9301 7.41859 6.40276 7.41859 6.07724 7.74391C5.75192 8.06943 5.75192 8.59677 6.07724 8.92229L9.41057 12.2556C9.57354 12.4186 9.78635 12.4998 9.99977 12.4998C10.2132 12.4998 10.426 12.4186 10.589 12.2556L19.7556 3.08896C20.0809 2.76344 20.0809 2.23609 19.7556 1.91057C19.4301 1.58526 18.9028 1.58526 18.5772 1.91057Z"/></g><defs><clipPath id="adclip0_0_1100"><rect width="20" height="20"/></clipPath></defs></symbol><symbol viewBox="0 0 16 17" id="clock" xmlns="http://www.w3.org/2000/svg"><path d="M8.66669 4.83341C8.66669 4.46522 8.36821 4.16675 8.00002 4.16675C7.63183 4.16675 7.33335 4.46522 7.33335 4.83341V8.50008C7.33335 8.67689 7.40359 8.84646 7.52862 8.97149L9.52861 10.9715C9.78896 11.2318 10.2111 11.2318 10.4714 10.9715C10.7318 10.7111 10.7318 10.289 10.4714 10.0287L8.66669 8.22394V4.83341Z"/><path fill-rule="evenodd" clip-rule="evenodd" d="M8.00002 1.16675C3.94993 1.16675 0.666687 4.44999 0.666687 8.50008C0.666687 12.5502 3.94993 15.8334 8.00002 15.8334C12.0501 15.8334 15.3334 12.5502 15.3334 8.50008C15.3334 4.44999 12.0501 1.16675 8.00002 1.16675ZM2.00002 8.50008C2.00002 5.18637 4.68631 2.50008 8.00002 2.50008C11.3137 2.50008 14 5.18637 14 8.50008C14 11.8138 11.3137 14.5001 8.00002 14.5001C4.68631 14.5001 2.00002 11.8138 2.00002 8.50008Z"/></symbol><symbol viewBox="0 0 53 52" id="construction" xmlns="http://www.w3.org/2000/svg"><g clip-path="url(#afclip0_63_1956)"><path d="M50.9766 27.5234C51.8179 27.5234 52.5 26.8413 52.5 26V14.625C52.5 13.7837 51.8179 13.1016 50.9766 13.1016C49.9146 13.1016 29.168 13.1016 28.0234 13.1016V3.25C28.0234 2.40866 27.3413 1.72656 26.5 1.72656H10.25C9.40866 1.72656 8.72656 2.40866 8.72656 3.25V13.1016H2.02344C1.18209 13.1016 0.5 13.7837 0.5 14.625V26C0.5 26.8413 1.18209 27.5234 2.02344 27.5234H8.72656V35.8516H2.02344C1.18209 35.8516 0.5 36.5337 0.5 37.375V48.75C0.5 49.5913 1.18209 50.2734 2.02344 50.2734H50.9766C51.8179 50.2734 52.5 49.5913 52.5 48.75V37.375C52.5 36.5337 51.8179 35.8516 50.9766 35.8516H44.2734V27.5234H50.9766ZM49.4531 24.4766C47.8232 24.4766 37.7597 24.4766 36.1484 24.4766V16.1484H49.4531V24.4766ZM33.1016 24.4766C31.5059 24.4766 21.5046 24.4766 19.8984 24.4766V16.1484H33.1016V24.4766ZM11.7734 4.77344H24.9766V13.1016C23.3809 13.1016 13.3796 13.1016 11.7734 13.1016V4.77344ZM3.54688 24.4766V16.1484H16.8516V24.4766C15.2396 24.4766 5.17645 24.4766 3.54688 24.4766ZM11.7734 27.5234H24.9766V35.8516C23.3809 35.8516 13.3796 35.8516 11.7734 35.8516V27.5234ZM3.54688 38.8984H16.8516V47.2266H3.54688V38.8984ZM19.8984 38.8984H33.1016V47.2266H19.8984V38.8984ZM49.4531 38.8984V47.2266H36.1484V38.8984H49.4531ZM41.2266 35.8516C39.6309 35.8516 29.6296 35.8516 28.0234 35.8516V27.5234H41.2266V35.8516Z"/></g><defs><clipPath id="afclip0_63_1956"><rect width="52" height="52" transform="translate(0.5)"/></clipPath></defs></symbol><symbol viewBox="0 0 53 52" id="design" xmlns="http://www.w3.org/2000/svg"><g clip-path="url(#agclip0_63_1928)"><path d="M11.2656 36.6641C8.74555 36.6641 6.69531 38.7143 6.69531 41.2344C6.69531 43.7544 8.74555 45.8047 11.2656 45.8047C13.7857 45.8047 15.8359 43.7544 15.8359 41.2344C15.8359 38.7143 13.7857 36.6641 11.2656 36.6641ZM11.2656 42.7578C10.4256 42.7578 9.74219 42.0744 9.74219 41.2344C9.74219 40.3944 10.4256 39.7109 11.2656 39.7109C12.1056 39.7109 12.7891 40.3944 12.7891 41.2344C12.7891 42.0744 12.1056 42.7578 11.2656 42.7578Z"/><path d="M49.7504 30.9497C50.7897 29.5433 50.9811 27.582 50.0361 25.9454L43.9455 15.2945C42.8919 13.4696 40.6701 12.6369 38.6882 13.1667C39.1102 11.2698 38.2823 9.23477 36.5124 8.21295L25.9584 2.11961C24.4511 1.24922 22.6489 1.33839 21.2628 2.19568C20.4596 0.880141 19.0104 0 17.3594 0H5.07031C2.55024 0 0.5 2.05024 0.5 4.57031C0.5 5.62707 0.5 46.2132 0.5 47.4297C0.5 49.9498 2.55024 52 5.07031 52C6.25382 52 42.1374 52 47.9297 52C50.4498 52 52.5 49.9498 52.5 47.4297V35.1406C52.5 33.2675 51.3669 31.6547 49.7504 30.9497ZM18.8828 47.4297C18.8828 48.2697 18.1994 48.9531 17.3594 48.9531H5.07031C4.23029 48.9531 3.54688 48.2697 3.54688 47.4297C3.54688 46.7337 3.54688 34.2857 3.54688 33.6172H18.8828V47.4297ZM18.8828 30.5703H3.54688V18.2812H18.8828V30.5703ZM18.8828 15.2344H3.54688V4.57031C3.54688 3.73029 4.23029 3.04688 5.07031 3.04688H17.3594C18.1994 3.04688 18.8828 3.73029 18.8828 4.57031V15.2344ZM21.9297 6.04988L22.3533 5.31609C22.7736 4.58839 23.7073 4.33814 24.4349 4.75831L34.989 10.8516C35.7167 11.2718 35.9668 12.2056 35.5456 12.9353L33.7853 15.9951C33.7412 16.0602 33.7016 16.1278 33.6683 16.1984L21.9297 36.6026V6.04988ZM21.9297 42.7126L36.171 17.9581L39.1156 16.258C39.8621 15.8271 40.8859 16.0888 41.3037 16.8125L47.3944 27.4633C47.8156 28.1929 47.57 29.1283 46.8328 29.5539C45.7449 30.1837 23.0011 43.3507 21.9297 43.971V42.7126ZM49.4531 47.4297C49.4531 48.2697 48.7697 48.9531 47.9297 48.9531H21.6677C21.8301 48.4951 21.9212 48.0039 21.9282 47.4926L45.8954 33.6172H47.9297C48.7697 33.6172 49.4531 34.3006 49.4531 35.1406V47.4297Z"/></g><defs><clipPath id="agclip0_63_1928"><rect width="52" height="52" transform="translate(0.5)"/></clipPath></defs></symbol><symbol viewBox="0 0 24 24" id="facebook" xmlns="http://www.w3.org/2000/svg"><path d="M17.5628 1.00458L14.7856 1C11.6654 1 9.64903 3.12509 9.64903 6.41423V8.91055H6.85662C6.61532 8.91055 6.41992 9.1115 6.41992 9.35937V12.9763C6.41992 13.2241 6.61554 13.4249 6.85662 13.4249H9.64903V22.5514C9.64903 22.7993 9.84443 23 10.0857 23H13.729C13.9703 23 14.1657 22.799 14.1657 22.5514V13.4249H17.4307C17.672 13.4249 17.8674 13.2241 17.8674 12.9763L17.8688 9.35937C17.8688 9.24036 17.8226 9.12638 17.7409 9.04215C17.6591 8.95793 17.5477 8.91055 17.4318 8.91055H14.1657V6.79439C14.1657 5.77728 14.4017 5.26094 15.6915 5.26094L17.5624 5.26025C17.8035 5.26025 17.9989 5.0593 17.9989 4.81166V1.45317C17.9989 1.20576 17.8037 1.00504 17.5628 1.00458Z"/></symbol><symbol viewBox="0 0 20 20" id="facebook-contrast" xmlns="http://www.w3.org/2000/svg"><path d="M14.6357 0.83715L12.3214 0.833336C9.72122 0.833336 8.0409 2.60424 8.0409 5.34519V7.42546H5.71389C5.51281 7.42546 5.34998 7.59292 5.34998 7.79948V10.8136C5.34998 11.0201 5.51299 11.1874 5.71389 11.1874H8.0409V18.7928C8.0409 18.9994 8.20373 19.1667 8.40482 19.1667H11.4409C11.642 19.1667 11.8048 18.9992 11.8048 18.7928V11.1874H14.5256C14.7267 11.1874 14.8896 11.0201 14.8896 10.8136L14.8907 7.79948C14.8907 7.7003 14.8522 7.60532 14.7841 7.53513C14.716 7.46494 14.6231 7.42546 14.5266 7.42546H11.8048V5.66199C11.8048 4.8144 12.0014 4.38412 13.0763 4.38412L14.6354 4.38354C14.8363 4.38354 14.9991 4.21608 14.9991 4.00972V1.21098C14.9991 1.0048 14.8365 0.837532 14.6357 0.83715Z"/></symbol><symbol viewBox="0 0 16 16" id="heart" xmlns="http://www.w3.org/2000/svg"><path fill-rule="evenodd" clip-rule="evenodd" d="M7.99925 13.272C4.93321 11.5257 3.22318 9.79004 2.39626 8.2841C1.54992 6.74277 1.62377 5.44459 2.0934 4.52322C3.05872 2.6294 5.80378 2.02382 7.4763 4.13914L7.99921 4.8005L8.52217 4.13917C10.195 2.02376 12.9402 2.62945 13.9055 4.52322C14.3751 5.44457 14.4489 6.74275 13.6025 8.28408C12.7756 9.79003 11.0654 11.5257 7.99925 13.272ZM7.99928 2.73775C5.64647 0.502007 2.17555 1.42603 0.905488 3.91772C0.20846 5.28519 0.198939 7.05261 1.22753 8.92585C2.247 10.7825 4.2796 12.7422 7.67675 14.6199L7.99924 14.7981L8.32173 14.6199C11.719 12.7422 13.7517 10.7825 14.7712 8.92586C15.7999 7.05263 15.7904 5.28521 15.0934 3.91772C13.8233 1.42599 10.3523 0.502041 7.99928 2.73775Z"/></symbol><symbol viewBox="0 0 48 48" id="helmet" xmlns="http://www.w3.org/2000/svg"><path d="M45.1875 34.0856V29.625C45.1875 24.9949 43.6945 20.594 40.87 16.8982C38.3629 13.6176 34.8964 11.1016 31.026 9.73163C30.9183 7.50066 29.0697 5.71875 26.8125 5.71875H21.1875C18.9303 5.71875 17.0817 7.50066 16.974 9.73163C13.1036 11.1016 9.63713 13.6176 7.12997 16.8982C4.30547 20.594 2.8125 24.9949 2.8125 29.625V34.0856C1.17572 34.6661 0 36.2292 0 38.0625C0 40.3887 1.89253 42.2812 4.21875 42.2812H43.7812C46.1075 42.2812 48 40.3887 48 38.0625C48 36.2292 46.8243 34.6661 45.1875 34.0856ZM5.625 29.625C5.625 24.554 7.79119 19.8068 11.3438 16.4198V21.1875C11.3438 21.9641 11.9734 22.5938 12.75 22.5938C13.5266 22.5938 14.1562 21.9641 14.1562 21.1875V14.2141C15.0424 13.6484 15.9822 13.1549 16.9688 12.7442V24C16.9688 24.7766 17.5984 25.4062 18.375 25.4062C19.1516 25.4062 19.7812 24.7766 19.7812 24V10.7749C19.7813 10.771 19.7812 10.7672 19.7812 10.7633V9.9375C19.7812 9.16209 20.4121 8.53125 21.1875 8.53125H26.8125C27.5879 8.53125 28.2188 9.16209 28.2188 9.9375V10.763C28.2188 10.767 28.2187 10.7709 28.2188 10.775V24C28.2188 24.7766 28.8484 25.4062 29.625 25.4062C30.4016 25.4062 31.0312 24.7766 31.0312 24V12.7442C32.0178 13.155 32.9576 13.6485 33.8438 14.2141V21.1875C33.8438 21.9641 34.4734 22.5938 35.25 22.5938C36.0266 22.5938 36.6562 21.9641 36.6562 21.1875V16.4198C40.2088 19.8068 42.375 24.554 42.375 29.625V33.8438H5.625V29.625ZM43.7812 39.4688H4.21875C3.44334 39.4688 2.8125 38.8379 2.8125 38.0625C2.8125 37.2871 3.44334 36.6562 4.21875 36.6562H43.7812C44.5567 36.6562 45.1875 37.2871 45.1875 38.0625C45.1875 38.8379 44.5567 39.4688 43.7812 39.4688Z"/></symbol><symbol viewBox="0 0 48 48" id="house" xmlns="http://www.w3.org/2000/svg"><g clip-path="url(#alclip0_331_1653)"><path d="M28.9219 21.0938C26.9645 21.0938 25.2653 21.9855 24 23.6748C22.7344 21.9855 21.0352 21.0938 19.0781 21.0938C15.423 21.0938 12.75 24.0978 12.75 27.7841C12.75 32.5499 17.369 35.5437 23.0848 40.4425C23.3481 40.6681 23.6741 40.7813 24 40.7809C24.3259 40.7809 24.6519 40.6681 24.9152 40.4425C30.6379 35.5375 35.25 32.5481 35.25 27.7841C35.25 24.1007 32.5796 21.0938 28.9219 21.0938ZM24 37.5286C18.85 33.178 15.5625 30.832 15.5625 27.7841C15.5625 25.5732 17.0739 23.9063 19.0781 23.9063C21.6844 23.9063 22.6069 26.9652 22.6472 27.1036C22.8193 27.7075 23.3712 28.125 24 28.125C24.6306 28.125 25.184 27.705 25.3539 27.0978C25.363 27.0659 26.2782 23.9063 28.9219 23.9063C30.9258 23.9063 32.4375 25.5732 32.4375 27.7841C32.4375 30.8346 29.1456 33.1816 24 37.5286Z"/><path d="M46.5934 45.188H42.3746V23.3447C42.3827 23.3505 42.3907 23.356 42.3988 23.3619C43.0203 23.8075 43.8842 23.6746 44.343 23.063L47.7188 18.5641C47.9451 18.262 48.0406 17.8819 47.9843 17.5087C47.9275 17.1355 47.7231 16.8008 47.417 16.58C47.1921 16.4178 24.9437 0.354281 24.8298 0.271883C24.3369 -0.0884687 23.6678 -0.0892012 23.1742 0.268953C23.1064 0.318026 18.8573 3.38578 14.0625 6.84794V4.21964C14.0625 3.44291 13.433 2.81339 12.6562 2.81339H7.03125C6.25452 2.81339 5.625 3.44291 5.625 4.21964V12.9399C2.74146 15.0218 0.651123 16.5309 0.583008 16.58C0.277222 16.8008 0.072876 17.1355 0.0161133 17.5087C-0.0406494 17.8819 0.0549317 18.2624 0.281616 18.5641L3.65698 23.063C4.11584 23.6746 4.97974 23.8075 5.6012 23.3619C5.60925 23.356 5.61694 23.3505 5.625 23.3447V45.1884H1.40625C0.629517 45.1884 0 45.8179 0 46.5947C0 47.371 0.629517 48.0009 1.40625 48.0009H46.5934C47.3701 48.0009 47.9996 47.371 47.9996 46.5947C47.9996 45.8179 47.3701 45.188 46.5934 45.188ZM8.4375 5.62589H11.25V8.87858C10.2975 9.56632 9.35083 10.2497 8.4375 10.9089V5.62589ZM5.08081 20.2743L3.39075 18.0218C17.5712 7.78361 22.3722 4.31705 24 3.14151C26.2672 4.77884 33.1714 9.76371 44.6093 18.0218L42.9196 20.2743C42.7793 20.174 24.98 7.4108 24.8225 7.29764C24.3311 6.94315 23.6678 6.94388 23.1771 7.29801C22.8582 7.52726 5.48254 19.9861 5.08081 20.2743ZM8.4375 21.3279C18.7676 13.9209 22.5864 11.1828 24 10.1687C25.9102 11.5387 31.1199 15.2745 39.5625 21.3279V45.1884H8.4375V21.3279Z"/></g><defs><clipPath id="alclip0_331_1653"><rect width="48" height="48"/></clipPath></defs></symbol><symbol viewBox="0 0 20 20" id="linked-in" xmlns="http://www.w3.org/2000/svg"><path d="M18.3292 18.3333L18.3334 18.3326V12.2201C18.3334 9.22986 17.6896 6.92639 14.1938 6.92639C12.5132 6.92639 11.3854 7.84861 10.925 8.72292H10.8764V7.20555H7.56182V18.3326H11.0132V12.8229C11.0132 11.3722 11.2882 9.96944 13.0847 9.96944C14.8549 9.96944 14.8813 11.625 14.8813 12.916V18.3333H18.3292Z"/><path d="M1.94168 7.20625H5.39724V18.3333H1.94168V7.20625Z"/><path d="M3.66808 1.66666C2.56321 1.66666 1.66669 2.56319 1.66669 3.66805C1.66669 4.77291 2.56321 5.68819 3.66808 5.68819C4.77294 5.68819 5.66946 4.77291 5.66946 3.66805C5.66877 2.56319 4.77224 1.66666 3.66808 1.66666Z"/></symbol><symbol viewBox="0 0 24 24" id="messanger" xmlns="http://www.w3.org/2000/svg"><path d="M12 2C6.4775 2 2 6.145 2 11.2587C2 14.1725 3.45375 16.7712 5.72625 18.4688V22L9.13125 20.1313C10.04 20.3825 11.0025 20.5187 12 20.5187C17.5225 20.5187 22 16.3737 22 11.26C22 6.14625 17.5225 2 12 2ZM12.9937 14.4688L10.4475 11.7525L5.47875 14.4688L10.945 8.66625L13.5538 11.3825L18.46 8.66625L12.9937 14.4688Z"/></symbol><symbol viewBox="0 0 24 24" id="more" xmlns="http://www.w3.org/2000/svg"><path fill-rule="evenodd" clip-rule="evenodd" d="M2.09961 2C2.65189 2 3.09961 2.44772 3.09961 3V7.43632C4.75764 4.20928 8.11959 2 11.9996 2C16.3552 2 20.058 4.78413 21.4303 8.66675C21.6144 9.18747 21.3414 9.75879 20.8207 9.94284C20.3 10.1269 19.7287 9.85396 19.5446 9.33325C18.4459 6.22472 15.4813 4 11.9996 4C9.03957 4 6.45326 5.60799 5.06955 8H8.09957C8.65186 8 9.09957 8.44772 9.09957 9C9.09957 9.55228 8.65186 10 8.09957 10H2.09961C1.54732 10 1.09961 9.55228 1.09961 9V3C1.09961 2.44772 1.54732 2 2.09961 2Z"/><path fill-rule="evenodd" clip-rule="evenodd" d="M3.17664 14.0572C3.69736 13.8731 4.26868 14.146 4.45273 14.6668C5.55144 17.7753 8.51608 20 11.9978 20C14.9578 20 17.5441 18.392 18.9278 16H15.8978C15.3455 16 14.8978 15.5523 14.8978 15C14.8978 14.4477 15.3455 14 15.8978 14H21.8977C22.45 14 22.8977 14.4477 22.8977 15V21C22.8977 21.5523 22.45 22 21.8977 22C21.3455 22 20.8977 21.5523 20.8977 21V16.5637C19.2397 19.7907 15.8778 22 11.9978 22C7.64215 22 3.93936 19.2159 2.56705 15.3332C2.383 14.8125 2.65593 14.2412 3.17664 14.0572Z"/></symbol><symbol viewBox="0 0 20 20" id="mute" xmlns="http://www.w3.org/2000/svg"><path fill-rule="evenodd" clip-rule="evenodd" d="M12.0003 15.5834C12.5837 16.0001 13.3337 15.6667 13.3337 14.9167V11.1667L10.2503 14.2501L12.0003 15.5834Z"/><path fill-rule="evenodd" clip-rule="evenodd" d="M17.2503 4.41675C16.917 4.08341 16.417 4.08341 16.0837 4.41675L13.3337 7.16675V5.08341C13.3337 4.41675 12.5003 4.00008 12.0003 4.41675L9.66699 6.33341C9.33366 6.50008 9.00033 6.66675 8.58366 6.66675H6.66699C5.75033 6.66675 5.00033 7.41675 5.00033 8.33341V11.6667C5.00033 12.5834 5.75033 13.3334 6.66699 13.3334H7.16699L4.41699 16.0834C4.08366 16.4167 4.08366 16.9167 4.41699 17.2501C4.75033 17.5834 5.25033 17.5834 5.58366 17.2501L17.2503 5.58341C17.5837 5.25008 17.5837 4.75008 17.2503 4.41675Z"/></symbol><symbol viewBox="0 0 16 17" id="outline" xmlns="http://www.w3.org/2000/svg"><path fill-rule="evenodd" clip-rule="evenodd" d="M8.00001 5.66659C7.26363 5.66659 6.66668 6.26354 6.66668 6.99992C6.66668 7.7363 7.26363 8.33325 8.00001 8.33325C8.73639 8.33325 9.33334 7.7363 9.33334 6.99992C9.33334 6.26354 8.73639 5.66659 8.00001 5.66659ZM5.33334 6.99992C5.33334 5.52716 6.52725 4.33325 8.00001 4.33325C9.47277 4.33325 10.6667 5.52716 10.6667 6.99992C10.6667 8.47268 9.47277 9.66659 8.00001 9.66659C6.52725 9.66659 5.33334 8.47268 5.33334 6.99992Z"/><path fill-rule="evenodd" clip-rule="evenodd" d="M8.00001 2.66659C5.58698 2.66659 3.66668 4.55729 3.66668 6.84607C3.66668 8.71195 4.78802 10.5965 6.01377 12.0787C6.61551 12.8064 7.21896 13.4092 7.67232 13.83C7.7936 13.9426 7.90382 14.0419 8.00001 14.1267C8.0962 14.0419 8.20642 13.9426 8.3277 13.83C8.78106 13.4092 9.38451 12.8064 9.98625 12.0787C11.212 10.5965 12.3333 8.71195 12.3333 6.84607C12.3333 4.55729 10.413 2.66659 8.00001 2.66659ZM8.00001 14.9999C7.58746 15.5236 7.58731 15.5235 7.58714 15.5233L7.58548 15.522L7.58168 15.519L7.56877 15.5087C7.55782 15.5 7.54227 15.4874 7.52241 15.4712C7.4827 15.4388 7.42574 15.3917 7.35399 15.3309C7.21056 15.2093 7.0077 15.0323 6.7652 14.8072C6.28106 14.3578 5.63451 13.7124 4.98625 12.9284C3.712 11.3875 2.33334 9.19512 2.33334 6.84607C2.33334 3.78194 4.89019 1.33325 8.00001 1.33325C11.1098 1.33325 13.6667 3.78194 13.6667 6.84607C13.6667 9.19512 12.288 11.3875 11.0138 12.9284C10.3655 13.7124 9.71896 14.3578 9.23482 14.8072C8.99232 15.0323 8.78946 15.2093 8.64603 15.3309C8.57428 15.3917 8.51732 15.4388 8.47761 15.4712C8.45775 15.4874 8.4422 15.5 8.43126 15.5087L8.41834 15.519L8.41454 15.522L8.41332 15.523C8.41315 15.5231 8.41256 15.5236 8.00001 14.9999ZM8.00001 14.9999L8.41256 15.5236C8.17056 15.7142 7.82913 15.714 7.58714 15.5233L8.00001 14.9999Z"/></symbol><symbol viewBox="0 0 19 22" id="play" xmlns="http://www.w3.org/2000/svg"><path d="M18.5 10.134C19.1667 10.5189 19.1667 11.4811 18.5 11.866L2 21.3923C1.33333 21.7772 0.499999 21.2961 0.499999 20.5263L0.5 1.47372C0.5 0.703921 1.33333 0.222794 2 0.607695L18.5 10.134Z"/></symbol><symbol viewBox="0 0 53 52" id="project" xmlns="http://www.w3.org/2000/svg"><g clip-path="url(#asclip0_63_270)"><path d="M46.4062 3.14844C44.1552 3.14844 42.1854 4.37521 41.1303 6.19531H2.02344C1.18209 6.19531 0.5 6.87741 0.5 7.71875V47.3281C0.5 48.1695 1.18209 48.8516 2.02344 48.8516H46.4062C49.7663 48.8516 52.5 46.1179 52.5 42.7578V9.24219C52.5 5.88209 49.7663 3.14844 46.4062 3.14844ZM46.4062 45.8047C45.8103 45.8047 4.1011 45.8047 3.54688 45.8047V9.24219H40.3125V42.7578C40.3125 43.5992 40.9946 44.2812 41.8359 44.2812C42.6773 44.2812 43.3594 43.5992 43.3594 42.7578C43.3594 41.0778 44.7262 39.7109 46.4062 39.7109C48.0863 39.7109 49.4531 41.0778 49.4531 42.7578C49.4531 44.4379 48.0863 45.8047 46.4062 45.8047ZM49.4531 37.4818C48.5563 36.9619 47.5153 36.6641 46.4062 36.6641C45.2972 36.6641 44.2562 36.9619 43.3594 37.4818V9.24219C43.3594 7.56214 44.7262 6.19531 46.4062 6.19531C48.0863 6.19531 49.4531 7.56214 49.4531 9.24219V37.4818Z"/><path d="M35.6406 12.2891H8.21875C7.37741 12.2891 6.69531 12.9712 6.69531 13.8125V41.2344C6.69531 42.0757 7.37741 42.7578 8.21875 42.7578H23.4531C23.8572 42.7578 24.2446 42.5972 24.5303 42.3115C24.8161 42.0259 24.9766 41.6384 24.9766 41.2344V38.1875C24.9766 36.2013 26.2501 34.507 28.0234 33.8782V41.2344C28.0234 42.0757 28.7055 42.7578 29.5469 42.7578H35.6406C36.482 42.7578 37.1641 42.0757 37.1641 41.2344V13.8125C37.1641 12.9712 36.482 12.2891 35.6406 12.2891ZM34.1172 39.7109H31.0703V32.0938C31.0703 31.2524 30.3882 30.5703 29.5469 30.5703C25.3468 30.5703 21.9297 33.9874 21.9297 38.1875V39.7109H9.74219V30.5703H15.8359V35.1406C15.8359 35.982 16.518 36.6641 17.3594 36.6641C18.2007 36.6641 18.8828 35.982 18.8828 35.1406V29.0469C18.8828 28.2055 18.2007 27.5234 17.3594 27.5234H9.74219V15.3359H18.8828V21.4297H14.3125C13.4712 21.4297 12.7891 22.1118 12.7891 22.9531C12.7891 23.7945 13.4712 24.4766 14.3125 24.4766H20.4062H26.5C27.3413 24.4766 28.0234 23.7945 28.0234 22.9531C28.0234 22.1118 27.3413 21.4297 26.5 21.4297H21.9297V15.3359H34.1172V39.7109Z"/></g><defs><clipPath id="asclip0_63_270"><rect width="52" height="52" transform="translate(0.5)"/></clipPath></defs></symbol><symbol viewBox="0 0 48 48" id="quality" xmlns="http://www.w3.org/2000/svg"><path d="M44.0166 29.7188C44.6859 28.9716 45.0938 27.9853 45.0938 26.9062C45.0938 24.5803 43.2009 22.6875 40.875 22.6875H32.6869C33.4978 20.2266 33.8438 16.9613 33.8438 15.5616V14.1562C33.8438 11.055 31.32 8.53125 28.2188 8.53125H26.8125C26.1675 8.53125 25.605 8.97 25.4484 9.59625L24.6825 12.6609C23.6091 16.9528 20.2013 21.6881 16.6744 22.5487C16.0566 20.985 14.5312 19.875 12.75 19.875H4.3125C3.53625 19.875 2.90625 20.505 2.90625 21.2812V46.5938C2.90625 47.37 3.53625 48 4.3125 48H12.75C14.4272 48 15.8784 47.0166 16.5581 45.5953L21.39 47.2059C22.9697 47.7328 24.6159 48 26.2819 48H38.0625C40.3884 48 42.2812 46.1072 42.2812 43.7812C42.2812 43.2328 42.1763 42.7078 41.985 42.2269C43.7738 41.7384 45.0938 40.0987 45.0938 38.1562C45.0938 37.0772 44.6859 36.0909 44.0166 35.3438C44.6859 34.5966 45.0938 33.6103 45.0938 32.5312C45.0938 31.4522 44.6859 30.4659 44.0166 29.7188ZM14.1562 43.7812C14.1562 44.5566 13.5253 45.1875 12.75 45.1875H5.71875V22.6875H12.75C13.5253 22.6875 14.1562 23.3184 14.1562 24.0938V43.7812ZM38.0625 31.125H40.875C41.6503 31.125 42.2812 31.7559 42.2812 32.5312C42.2812 33.3066 41.6503 33.9375 40.875 33.9375H38.0625C37.2863 33.9375 36.6562 34.5675 36.6562 35.3438C36.6562 36.12 37.2863 36.75 38.0625 36.75H40.875C41.6503 36.75 42.2812 37.3809 42.2812 38.1562C42.2812 38.9316 41.6503 39.5625 40.875 39.5625H38.0625C37.2863 39.5625 36.6562 40.1925 36.6562 40.9688C36.6562 41.745 37.2863 42.375 38.0625 42.375C38.8378 42.375 39.4688 43.0059 39.4688 43.7812C39.4688 44.5566 38.8378 45.1875 38.0625 45.1875H26.2819C24.9187 45.1875 23.5716 44.9691 22.2787 44.5378L16.9688 42.7678V25.3669C19.1747 24.9478 21.3337 23.5509 23.2828 21.2644C25.1859 19.0313 26.7291 16.0706 27.4106 13.3434L27.9103 11.3438H28.2188C29.7694 11.3438 31.0312 12.6056 31.0312 14.1562V15.5616C31.0312 17.4497 30.4406 21.0712 29.685 22.6875H26.8125C26.0362 22.6875 25.4062 23.3175 25.4062 24.0938C25.4062 24.87 26.0362 25.5 26.8125 25.5H40.875C41.6503 25.5 42.2812 26.1309 42.2812 26.9062C42.2812 27.6816 41.6503 28.3125 40.875 28.3125H38.0625C37.2863 28.3125 36.6562 28.9425 36.6562 29.7188C36.6562 30.495 37.2863 31.125 38.0625 31.125Z"/><path d="M9.9375 42.375C10.7142 42.375 11.3438 41.7454 11.3438 40.9688C11.3438 40.1921 10.7142 39.5625 9.9375 39.5625C9.16085 39.5625 8.53125 40.1921 8.53125 40.9688C8.53125 41.7454 9.16085 42.375 9.9375 42.375Z"/><path d="M29.625 0C28.8484 0 28.2188 0.629625 28.2188 1.40625V4.3125C28.2188 5.08913 28.8484 5.71875 29.625 5.71875C30.4016 5.71875 31.0312 5.08913 31.0312 4.3125V1.40625C31.0312 0.629625 30.4016 0 29.625 0Z"/><path d="M23.6589 6.20139L21.6701 4.21267C21.1211 3.66348 20.2306 3.66348 19.6814 4.21267C19.1322 4.76186 19.1322 5.6522 19.6814 6.20139L21.6701 8.19011C22.2192 8.7392 23.1098 8.7393 23.6589 8.19011C24.2081 7.64092 24.2081 6.75058 23.6589 6.20139Z"/><path d="M39.569 4.21267C39.0199 3.66348 38.1295 3.66348 37.5803 4.21267L35.5916 6.2013C35.0424 6.75049 35.0424 7.64083 35.5916 8.19002C36.1407 8.73921 37.0311 8.7393 37.5803 8.19011L39.569 6.20139C40.1182 5.6522 40.1182 4.76186 39.569 4.21267Z"/></symbol><symbol viewBox="0 0 53 52" id="repairs" xmlns="http://www.w3.org/2000/svg"><path d="M43.3594 4.57031C43.3594 2.05029 41.3091 0 38.7891 0H8.32031C5.80029 0 3.75 2.05029 3.75 4.57031V13.7109C3.75 16.231 5.80029 18.2813 8.32031 18.2813H38.7891C41.3091 18.2813 43.3594 16.231 43.3594 13.7109V12.1875H44.8828C45.7227 12.1875 46.4063 12.8711 46.4063 13.7109V19.8047C46.4063 20.6446 45.7227 21.3281 44.8828 21.3281H26.6016C24.0815 21.3281 22.0313 23.3784 22.0313 25.8984V30.4688H20.5078C19.6664 30.4688 18.9844 31.1507 18.9844 31.9922V38.003L17.4609 44.1952C16.4703 48.1573 19.464 52 23.5547 52C27.6473 52 30.6379 48.1533 29.65 44.2007L28.125 38.003V31.9922C28.125 31.1507 27.443 30.4688 26.6016 30.4688H25.0781V25.8984C25.0781 25.0586 25.7617 24.375 26.6016 24.375H44.8828C47.4028 24.375 49.4531 22.3247 49.4531 19.8047V13.7109C49.4531 11.1909 47.4028 9.14063 44.8828 9.14063H43.3594V4.57031ZM25.0781 33.5156V36.6641H22.0313V33.5156H25.0781ZM23.5547 48.9531C21.456 48.9531 19.9044 46.9834 20.4182 44.9287L21.702 39.7109H25.4074L26.6924 44.9343C27.2026 46.9746 25.6609 48.9531 23.5547 48.9531ZM8.32031 3.04688H38.7891C39.6289 3.04688 40.3125 3.73044 40.3125 4.57031V6.09375H35.7422C34.2616 6.09375 32.3684 6.64838 30.1761 7.29028C27.2149 8.15753 23.859 9.14063 20.5078 9.14063C17.2412 9.14063 14.9381 8.18649 12.9061 7.34503C11.3525 6.70154 9.88541 6.09375 8.32031 6.09375H6.79688V4.57031C6.79688 3.73044 7.48044 3.04688 8.32031 3.04688ZM40.3125 13.7109C40.3125 14.5508 39.6289 15.2344 38.7891 15.2344H8.32031C7.48044 15.2344 6.79688 14.5508 6.79688 13.7109V9.14063H8.32031C9.27921 9.14063 10.3654 9.59052 11.7401 10.1598C13.9209 11.0632 16.6349 12.1875 20.5078 12.1875C24.2962 12.1875 28.031 11.0933 31.0326 10.2146C32.9179 9.66232 34.6988 9.14063 35.7422 9.14063H40.3125V13.7109Z"/></symbol><symbol viewBox="0 0 24 24" id="right" xmlns="http://www.w3.org/2000/svg"><path fill-rule="evenodd" clip-rule="evenodd" d="M14.7929 6.79289C15.1834 6.40237 15.8166 6.40237 16.2071 6.79289L20.7071 11.2929C21.0976 11.6834 21.0976 12.3166 20.7071 12.7071L16.2071 17.2071C15.8166 17.5976 15.1834 17.5976 14.7929 17.2071C14.4024 16.8166 14.4024 16.1834 14.7929 15.7929L17.5858 13H4C3.44772 13 3 12.5523 3 12C3 11.4477 3.44772 11 4 11H17.5858L14.7929 8.20711C14.4024 7.81658 14.4024 7.18342 14.7929 6.79289Z"/></symbol><symbol viewBox="0 0 16 17" id="share-arrow" xmlns="http://www.w3.org/2000/svg"><path d="M0.666342 7.82877L6.76153 1.16663V5.14138H8.05741C12.0757 5.14138 15.333 8.38825 15.333 12.3936V14.5L14.7574 13.8712C12.8004 11.7339 10.0314 10.5162 7.12833 10.5162H6.76153V14.4909L0.666342 7.82877Z"/></symbol><symbol viewBox="0 0 100 68" id="signature" xmlns="http://www.w3.org/2000/svg"><path fill-rule="evenodd" clip-rule="evenodd" d="M72.1 65.9C70.9 63.7 75.9 59.8 77.4 57.9C70.9 58.1 77.1 54.1 80.7 56.1C80.7 57.4 73.1 65.8 72.1 65.9ZM68.9 63.6C71.2 62.8 76.4 52.2 71.1 57C71.2 59 66.8 61.2 68.9 63.6ZM98.8 33.6C98.8 43.4 77.3 51.3 69.7 51.4C66.6 54.5 61.9 66.3 56.8 67.3C54.5 63.7 63.5 51.8 66.9 48.7C66.9 47.2 62.3 49.4 64 44.9C62 45.3 54.8 51.6 55.4 44.9C51.8 47.1 45.4 51.8 42 47.4C39.9 47.6 33.4 53.3 32.9 47.6C29.9 49.7 30.4 49.5 27.6 49.5C22.8 52.6 8.2 61.4 8.2 49.2C11.4 37.5 3.3 54.5 1 48C1 43.1 17.4 20.9 20.3 23C20.3 24.3 11.8 32.5 10.3 34.2C9.8 35 0.6 47.6 3 47.9C11.4 43.5 14.2 34.1 21.3 29.1C25.7 29.7 19 34.6 17.3 36.6C14.1 38.9 5.4 50.8 12 54.1C18.5 54.1 22.3 50.6 27.6 47.9C30.4 43.5 33.8 40.5 37.8 37.7C46.3 33.8 52.4 22.6 56.6 14.4C57.8 10.4 59.3 7.1 56.8 3.5C46.9 -3.9 26.9 7.6 19.2 14C18.4 13 27.6 6.3 29.8 6C34.6 2.3 44.4 0 50.7 0C70.9 2.7 50 29.4 43 36.4C43 37 44.7 38.5 42.5 37.6C41.2 37.7 33.8 47.1 34.6 48.6C42.2 48.6 42.6 40.3 47.4 36.3C47.6 35 55.8 27.9 57.3 31.8C56.8 36.8 46.9 43.4 43.3 46.2C43.3 51.3 55.4 43.1 56.5 42.5C56.9 41.9 62.7 35 62.7 35C58.1 33.6 59.4 32.5 63.8 33.7C66 33.3 67.2 29 69.9 30.5C69.9 33.5 63.1 36.2 73.9 34.3C74.7 33.5 79 29.5 78.8 32.8C75.6 35.5 86.5 32.9 88.2 31C92.4 33.7 77.8 35.4 75.8 35.6C73.8 36.9 64.8 44 65.2 46.9C69.4 46.9 75.6 39.8 78.7 37.1C79.6 37 79.9 37.8 80.8 37.6C84.2 35 95.8 28.2 98.8 33.6ZM44 43.8C46.3 42.5 56.1 34.8 55.8 32.2C53 31.9 43.1 41.6 44 43.8ZM33.9 42.9C34.2 42.7 34.5 42.6 34.9 42.4C36.3 40.5 34.2 42 33.9 42.9ZM62.3 37.7C63 37 63.8 36.3 64.5 35.7C64.2 34.9 62.5 37.1 62.3 37.7ZM69.3 38.3C73.9 35.1 71 35.8 66.2 35.7C63.6 38.3 56.7 42.6 56.9 46.7C61.1 46 66.7 41.5 69.3 38.3ZM68.3 51C67.5 46.3 58.6 62.4 58 64.9C62.2 60.9 65.2 55.7 68.3 51ZM70.5 47C69.9 47.5 68.3 48.5 69 49.4C69.5 48.9 70.5 47.7 70.5 47ZM96.9 33.3C89.5 31 72.6 42.9 70.6 50.2C78 49.8 85.7 45 92 41.4C93.4 40.1 99.4 35.3 96.9 33.3Z"/></symbol><symbol viewBox="0 0 24 24" id="twitter" xmlns="http://www.w3.org/2000/svg"><path d="M22.5 5.77249C21.7271 6.10042 20.8978 6.32282 20.0264 6.42212C20.9161 5.91196 21.5972 5.10278 21.92 4.14155C21.0854 4.61398 20.1642 4.95703 19.1826 5.143C18.3966 4.3401 17.2785 3.84 16.0384 3.84C13.6593 3.84 11.7303 5.68706 11.7303 7.96385C11.7303 8.28676 11.7683 8.60214 11.8418 8.90373C8.26201 8.73156 5.08768 7.08932 2.96314 4.59388C2.59176 5.20204 2.38049 5.91068 2.38049 6.66712C2.38049 8.0983 3.14161 9.36108 4.2964 10.0999C3.5904 10.0773 2.92639 9.89131 2.34508 9.5822V9.63372C2.34508 11.6316 3.83056 13.2989 5.80024 13.6784C5.43936 13.7714 5.05882 13.8229 4.66514 13.8229C4.38696 13.8229 4.11794 13.7965 3.85417 13.7463C4.40267 15.386 5.99315 16.5784 7.87756 16.6111C6.40388 17.7169 4.54573 18.374 2.52749 18.374C2.17976 18.374 1.83724 18.3539 1.5 18.3175C3.40671 19.4898 5.67036 20.1733 8.10327 20.1733C16.028 20.1733 20.3597 13.8883 20.3597 8.43757L20.3453 7.90356C21.1917 7.32552 21.9239 6.59927 22.5 5.77249Z"/></symbol><symbol viewBox="0 0 20 20" id="twitter-contrast" xmlns="http://www.w3.org/2000/svg"><path d="M18.75 4.81041C18.1059 5.08369 17.4148 5.26902 16.6887 5.35176C17.4301 4.92663 17.9976 4.25232 18.2666 3.45129C17.5711 3.84499 16.8035 4.13086 15.9855 4.28583C15.3305 3.61675 14.3988 3.2 13.3653 3.2C11.3827 3.2 9.77523 4.73922 9.77523 6.63654C9.77523 6.90563 9.80694 7.16845 9.86819 7.41977C6.88501 7.2763 4.23973 5.90777 2.46928 3.82823C2.1598 4.33503 1.98374 4.92557 1.98374 5.55593C1.98374 6.74858 2.618 7.8009 3.58033 8.41657C2.992 8.39773 2.43866 8.24276 1.95423 7.98517V8.0281C1.95423 9.69297 3.19213 11.0824 4.83353 11.3987C4.5328 11.4762 4.21568 11.5191 3.88761 11.5191C3.6558 11.5191 3.43161 11.4971 3.2118 11.4552C3.66889 12.8217 4.99429 13.8154 6.56463 13.8426C5.33657 14.764 3.7881 15.3117 2.10624 15.3117C1.81646 15.3117 1.53103 15.2949 1.25 15.2645C2.83893 16.2415 4.7253 16.8111 6.75273 16.8111C13.3566 16.8111 16.9665 11.5736 16.9665 7.03131L16.9544 6.5863C17.6597 6.1046 18.2699 5.4994 18.75 4.81041Z"/></symbol><symbol viewBox="0 0 24 24" id="up-chevron" xmlns="http://www.w3.org/2000/svg"><path fill-rule="evenodd" clip-rule="evenodd" d="M4.29289 15.7071C3.90237 15.3166 3.90237 14.6834 4.29289 14.2929L11.2929 7.29289C11.6834 6.90237 12.3166 6.90237 12.7071 7.29289L19.7071 14.2929C20.0976 14.6834 20.0976 15.3166 19.7071 15.7071C19.3166 16.0976 18.6834 16.0976 18.2929 15.7071L12 9.41421L5.70711 15.7071C5.31658 16.0976 4.68342 16.0976 4.29289 15.7071Z"/></symbol><symbol viewBox="0 0 24 24" id="whatsapp" xmlns="http://www.w3.org/2000/svg"><path d="M22 11.7424C22 17.1231 17.6047 21.4849 12.1818 21.4849C10.4602 21.4849 8.84289 21.0449 7.43578 20.2727L2 22L3.77222 16.7729C2.87822 15.3049 2.36333 13.5831 2.36333 11.7424C2.36333 6.36178 6.75911 2 12.1818 2C17.6051 2 22 6.36178 22 11.7424ZM12.1818 3.55156C7.62978 3.55156 3.92711 7.226 3.92711 11.7424C3.92711 13.5347 4.51133 15.1944 5.49956 16.5447L4.46822 19.5867L7.64044 18.5784C8.94378 19.4342 10.5051 19.9333 12.182 19.9333C16.7333 19.9333 20.4367 16.2593 20.4367 11.7429C20.4367 7.22644 16.7336 3.55156 12.1818 3.55156ZM17.1398 13.9862C17.0791 13.8869 16.9189 13.8269 16.6784 13.7076C16.4376 13.5882 15.254 13.0102 15.034 12.9309C14.8133 12.8513 14.6524 12.8113 14.4922 13.0502C14.332 13.2893 13.8707 13.8269 13.73 13.9862C13.5896 14.146 13.4493 14.166 13.2084 14.0464C12.968 13.9271 12.1927 13.6747 11.2733 12.8613C10.558 12.2284 10.0749 11.4471 9.93444 11.2078C9.79422 10.9689 9.91978 10.8398 10.04 10.7209C10.1484 10.6138 10.2809 10.442 10.4011 10.3027C10.5218 10.1631 10.5618 10.0638 10.6416 9.90422C10.7222 9.74489 10.682 9.60556 10.6216 9.48578C10.5616 9.36644 10.0798 8.19133 9.87933 7.71311C9.67889 7.23533 9.47867 7.31489 9.338 7.31489C9.19778 7.31489 9.03711 7.29489 8.87667 7.29489C8.71622 7.29489 8.45533 7.35467 8.23467 7.59356C8.01422 7.83267 7.39267 8.41044 7.39267 9.58533C7.39267 10.7604 8.25467 11.8958 8.37533 12.0549C8.49556 12.214 10.0398 14.7038 12.4864 15.66C14.9333 16.6158 14.9333 16.2969 15.3747 16.2569C15.8156 16.2171 16.7982 15.6793 16.9996 15.122C17.1996 14.5638 17.1996 14.0858 17.1398 13.9862Z"/></symbol><symbol viewBox="0 0 24 24" id="youtube" xmlns="http://www.w3.org/2000/svg"><path fill-rule="evenodd" clip-rule="evenodd" d="M21.3903 4.11407C22.4182 4.39093 23.2288 5.20135 23.5055 6.22948C24.0197 8.1074 23.9999 12.0218 23.9999 12.0218C23.9999 12.0218 23.9999 15.9163 23.5057 17.7944C23.2288 18.8223 22.4184 19.6329 21.3903 19.9096C19.5122 20.404 12 20.404 12 20.404C12 20.404 4.50731 20.404 2.60961 19.89C1.58148 19.6131 0.771054 18.8025 0.4942 17.7746C0 15.9163 0 12.002 0 12.002C0 12.002 0 8.1074 0.4942 6.22948C0.770871 5.20153 1.60125 4.37115 2.60943 4.09448C4.48753 3.6001 11.9998 3.6001 11.9998 3.6001C11.9998 3.6001 19.5122 3.6001 21.3903 4.11407ZM15.8549 12.0021L9.60788 15.6001V8.40404L15.8549 12.0021Z"/></symbol></svg>