<?xml version="1.0" encoding="utf-8"?><svg viewBox="0 0 100 68" xmlns="http://www.w3.org/2000/svg" xmlns:xlink="http://www.w3.org/1999/xlink"><style>:root>svg{display:none}:root>svg:target{display:block}</style><svg fill="none" viewBox="0 0 24 24" id="arrow-swiper" xmlns="http://www.w3.org/2000/svg"><path fill-rule="evenodd" clip-rule="evenodd" d="M9.207 17.207a1 1 0 0 1-1.414 0l-4.5-4.5a1 1 0 0 1 0-1.414l4.5-4.5a1 1 0 0 1 1.414 1.414L6.414 11H20a1 1 0 1 1 0 2H6.414l2.793 2.793a1 1 0 0 1 0 1.414Z" fill="#424551"/></svg><svg fill="none" viewBox="0 0 28 20" id="braces" xmlns="http://www.w3.org/2000/svg"><path d="M18 8.925a1 1 0 0 1 .354-.763L28 0v19a1 1 0 0 1-1 1h-8a1 1 0 0 1-1-1V8.925ZM0 8.925a1 1 0 0 1 .354-.763L10 0v19a1 1 0 0 1-1 1H1a1 1 0 0 1-1-1V8.925Z" fill="#FF5A30"/></svg><svg fill="none" viewBox="0 0 16 17" id="chat" xmlns="http://www.w3.org/2000/svg"><path fill-rule="evenodd" clip-rule="evenodd" d="M14.615 7.545a5.166 5.166 0 0 1-.653 1.858c.025.142.038.286.038.43 0 .502-.146.983-.415 1.42-.135.217-.17.472-.183.64-.015.194-.01.406.004.609.016.228.044.467.076.693-.26-.076-.542-.152-.812-.213a5.796 5.796 0 0 0-.66-.115c-.181-.019-.443-.033-.676.042a5.425 5.425 0 0 1-1.668.258 5.363 5.363 0 0 1-1.92-.343 8.829 8.829 0 0 1-2.712-.291C6.085 13.749 7.818 14.5 9.666 14.5a6.76 6.76 0 0 0 2.054-.314h.006c.016 0 .062-.002.147.007.134.014.306.045.504.09.395.089.839.22 1.184.33.734.233 1.445-.407 1.313-1.152-.056-.32-.115-.71-.138-1.05a2.959 2.959 0 0 1-.004-.412.78.78 0 0 1 .01-.084c.375-.62.591-1.328.591-2.081 0-.85-.264-1.625-.718-2.29Z" fill="#787A80"/><path fill-rule="evenodd" clip-rule="evenodd" d="M3.731 4.299c-.899.687-1.398 1.589-1.398 2.534 0 .472.123.926.353 1.348.088.16.113.326.121.439.01.122.005.248-.005.366a5.848 5.848 0 0 1-.134.765c-.07.308-.162.636-.255.943.352-.128.737-.259 1.102-.365a7.18 7.18 0 0 1 .858-.203c.228-.036.56-.071.845.027a6.48 6.48 0 0 0 2.115.347c1.432 0 2.703-.444 3.602-1.132.899-.687 1.398-1.59 1.398-2.535 0-.945-.5-1.847-1.398-2.534-.9-.688-2.17-1.132-3.602-1.132-1.431 0-2.703.444-3.602 1.132Zm-.81-1.06c1.152-.88 2.714-1.406 4.412-1.406s3.26.526 4.412 1.407c1.152.88 1.921 2.145 1.921 3.593s-.769 2.713-1.921 3.594c-1.152.88-2.714 1.406-4.412 1.406-.895 0-1.75-.146-2.527-.411 0 .002-.064-.004-.225.021-.186.03-.423.087-.693.166-.537.156-1.14.378-1.599.557-.796.31-1.606-.455-1.338-1.269.142-.431.31-.977.419-1.447.055-.237.09-.437.104-.585a1.16 1.16 0 0 0 .005-.113A4.117 4.117 0 0 1 1 6.833c0-1.448.77-2.712 1.922-3.593Z" fill="#787A80"/></svg><svg fill="none" viewBox="0 0 20 20" id="check" xmlns="http://www.w3.org/2000/svg"><g clip-path="url(#ada)" fill="#FF5A30"><path d="M10 19.167c5.054 0 9.167-4.113 9.167-9.167 0-.873-.122-1.732-.363-2.556a.763.763 0 1 0-1.467.43c.2.683.302 1.4.302 2.126 0 4.212-3.427 7.639-7.64 7.639-4.211 0-7.638-3.427-7.638-7.64 0-4.211 3.427-7.638 7.639-7.638 1.53 0 3.003.448 4.259 1.294a.764.764 0 0 0 .854-1.267A9.11 9.11 0 0 0 10 .833C4.946.833.833 4.945.833 10S4.946 19.167 10 19.167Z"/><path d="M18.577 1.91 10 10.489 7.256 7.744a.833.833 0 0 0-1.179 1.178l3.334 3.334a.83.83 0 0 0 1.178 0l9.167-9.167a.833.833 0 0 0-1.179-1.178Z"/></g><defs><clipPath id="ada"><path fill="#fff" d="M0 0h20v20H0z"/></clipPath></defs></svg><svg fill="none" viewBox="0 0 16 17" id="clock" xmlns="http://www.w3.org/2000/svg"><path d="M8.667 4.833a.667.667 0 0 0-1.334 0V8.5c0 .177.07.346.196.471l2 2a.667.667 0 0 0 .942-.942L8.667 8.224v-3.39Z" fill="#787A80"/><path fill-rule="evenodd" clip-rule="evenodd" d="M8 1.167a7.333 7.333 0 1 0 0 14.666A7.333 7.333 0 0 0 8 1.167ZM2 8.5a6 6 0 1 1 12 0 6 6 0 0 1-12 0Z" fill="#787A80"/></svg><svg fill="none" viewBox="0 0 53 52" id="construction" xmlns="http://www.w3.org/2000/svg"><g clip-path="url(#afa)"><path d="M50.977 27.523c.84 0 1.523-.682 1.523-1.523V14.625c0-.841-.682-1.523-1.523-1.523H28.023V3.25c0-.841-.682-1.523-1.523-1.523H10.25c-.841 0-1.523.682-1.523 1.523v9.852H2.023c-.84 0-1.523.682-1.523 1.523V26c0 .841.682 1.523 1.523 1.523h6.704v8.329H2.023c-.84 0-1.523.682-1.523 1.523V48.75c0 .841.682 1.523 1.523 1.523h48.954c.84 0 1.523-.682 1.523-1.523V37.375c0-.841-.682-1.523-1.523-1.523h-6.704v-8.329h6.704Zm-1.524-3.046H36.148v-8.329h13.305v8.329Zm-16.351 0H19.898v-8.329h13.204v8.329ZM11.773 4.773h13.204v8.329H11.773V4.773ZM3.547 24.477v-8.329h13.305v8.329H3.547Zm8.226 3.046h13.204v8.329H11.773v-8.329ZM3.547 38.898h13.305v8.329H3.547v-8.329Zm16.351 0h13.204v8.329H19.898v-8.329Zm29.555 0v8.329H36.148v-8.329h13.305Zm-8.226-3.046H28.023v-8.329h13.204v8.329Z" fill="#FF5A30"/></g><defs><clipPath id="afa"><path fill="#fff" transform="translate(.5)" d="M0 0h52v52H0z"/></clipPath></defs></svg><svg fill="none" viewBox="0 0 53 52" id="design" xmlns="http://www.w3.org/2000/svg"><g clip-path="url(#aga)" fill="#fff"><path d="M11.266 36.664c-2.52 0-4.57 2.05-4.57 4.57 0 2.52 2.05 4.57 4.57 4.57 2.52 0 4.57-2.05 4.57-4.57 0-2.52-2.05-4.57-4.57-4.57Zm0 6.094c-.84 0-1.524-.684-1.524-1.524s.684-1.523 1.524-1.523 1.523.683 1.523 1.523c0 .84-.683 1.524-1.523 1.524Z"/><path d="M49.75 30.95a4.572 4.572 0 0 0 .286-5.005l-6.09-10.65c-1.054-1.825-3.276-2.658-5.258-2.128a4.579 4.579 0 0 0-2.176-4.954L25.958 2.12a4.574 4.574 0 0 0-4.695.076A4.572 4.572 0 0 0 17.359 0H5.07C2.55 0 .5 2.05.5 4.57v42.86C.5 49.95 2.55 52 5.07 52h42.86c2.52 0 4.57-2.05 4.57-4.57V35.14a4.576 4.576 0 0 0-2.75-4.19ZM18.883 47.43c0 .84-.684 1.523-1.524 1.523H5.07c-.84 0-1.523-.683-1.523-1.523V33.617h15.336V47.43Zm0-16.86H3.547V18.281h15.336v12.29Zm0-15.336H3.547V4.57c0-.84.683-1.523 1.523-1.523h12.29c.84 0 1.523.683 1.523 1.523v10.664ZM21.93 6.05l.423-.734a1.526 1.526 0 0 1 2.082-.558l10.554 6.094c.728.42.978 1.354.557 2.083l-1.76 3.06a1.517 1.517 0 0 0-.118.203L21.93 36.603V6.05Zm0 36.663L36.17 17.958l2.945-1.7c.746-.43 1.77-.17 2.188.555l6.09 10.65c.422.73.176 1.665-.561 2.09L21.93 43.972v-1.258Zm27.523 4.717c0 .84-.683 1.523-1.523 1.523H21.668c.162-.458.253-.95.26-1.46l23.967-13.876h2.035c.84 0 1.523.684 1.523 1.524V47.43Z"/></g><defs><clipPath id="aga"><path fill="#fff" transform="translate(.5)" d="M0 0h52v52H0z"/></clipPath></defs></svg><svg fill="none" viewBox="0 0 24 24" id="facebook" xmlns="http://www.w3.org/2000/svg"><path d="M17.563 1.005 14.786 1c-3.12 0-5.137 2.125-5.137 5.414v2.497H6.857c-.242 0-.437.2-.437.448v3.617c0 .248.196.449.437.449h2.792v9.126c0 .248.195.449.437.449h3.643a.443.443 0 0 0 .437-.449v-9.126h3.265c.241 0 .436-.2.436-.449l.002-3.617a.456.456 0 0 0-.128-.317.431.431 0 0 0-.31-.131h-3.265V6.794c0-1.017.236-1.533 1.525-1.533h1.871c.241 0 .437-.202.437-.45V1.454a.443.443 0 0 0-.436-.448Z" fill="#fff"/></svg><svg fill="none" viewBox="0 0 20 20" id="facebook-contrast" xmlns="http://www.w3.org/2000/svg"><path d="M14.636.837 12.32.833c-2.6 0-4.28 1.771-4.28 4.512v2.08H5.714a.369.369 0 0 0-.364.374v3.015c0 .206.163.373.364.373H8.04v7.606c0 .206.163.374.364.374h3.036a.369.369 0 0 0 .364-.374v-7.606h2.72a.369.369 0 0 0 .365-.373V7.799a.38.38 0 0 0-.106-.264.36.36 0 0 0-.257-.11h-2.722V5.662c0-.848.196-1.278 1.271-1.278h1.56c.2 0 .363-.168.363-.374V1.21a.37.37 0 0 0-.363-.374Z" fill="#fff"/></svg><svg fill="none" viewBox="0 0 16 16" id="heart" xmlns="http://www.w3.org/2000/svg"><path fill-rule="evenodd" clip-rule="evenodd" d="M8 13.272C4.932 11.526 3.222 9.79 2.395 8.284c-.846-1.541-.772-2.84-.303-3.76.966-1.895 3.71-2.5 5.383-.385L8 4.801l.523-.662c1.673-2.115 4.418-1.51 5.383.384.47.922.544 2.22-.303 3.761-.826 1.506-2.537 3.242-5.603 4.988ZM8 2.738C5.645.502 2.175 1.426.904 3.918.208 5.285.2 7.053 1.228 8.926c1.019 1.857 3.052 3.816 6.449 5.694l.322.178.323-.178c3.397-1.878 5.43-3.837 6.45-5.694 1.028-1.873 1.018-3.64.321-5.008C13.823 1.426 10.353.502 8 2.738Z" fill="#FF5A30"/></svg><svg fill="none" viewBox="0 0 48 48" id="helmet" xmlns="http://www.w3.org/2000/svg"><path d="M45.188 34.086v-4.461c0-4.63-1.494-9.031-4.318-12.727a21.497 21.497 0 0 0-9.844-7.166 4.224 4.224 0 0 0-4.213-4.013h-5.625a4.224 4.224 0 0 0-4.214 4.013 21.497 21.497 0 0 0-9.844 7.166c-2.825 3.696-4.317 8.097-4.317 12.727v4.46A4.225 4.225 0 0 0 0 38.063a4.224 4.224 0 0 0 4.219 4.22H43.78A4.223 4.223 0 0 0 48 38.061a4.225 4.225 0 0 0-2.813-3.976ZM5.624 29.625c0-5.071 2.166-9.818 5.719-13.205v4.767a1.406 1.406 0 0 0 2.812 0v-6.973a18.292 18.292 0 0 1 2.813-1.47V24a1.406 1.406 0 0 0 2.812 0V9.938c0-.776.631-1.407 1.407-1.407h5.625c.775 0 1.406.631 1.406 1.406V24a1.406 1.406 0 0 0 2.812 0V12.744c.987.411 1.927.905 2.813 1.47v6.973a1.406 1.406 0 0 0 2.812 0V16.42c3.553 3.387 5.719 8.134 5.719 13.205v4.219H5.625v-4.219Zm38.156 9.844H4.22a1.408 1.408 0 0 1 0-2.813H43.78a1.408 1.408 0 0 1 0 2.813Z" fill="#FF5A30"/></svg><svg fill="none" viewBox="0 0 48 48" id="house" xmlns="http://www.w3.org/2000/svg"><g clip-path="url(#ala)" fill="#fff"><path d="M28.922 21.094c-1.957 0-3.657.891-4.922 2.58-1.266-1.689-2.965-2.58-4.922-2.58-3.655 0-6.328 3.004-6.328 6.69 0 4.766 4.619 7.76 10.335 12.659a1.402 1.402 0 0 0 1.83 0c5.723-4.905 10.335-7.895 10.335-12.659 0-3.683-2.67-6.69-6.328-6.69ZM24 37.529c-5.15-4.351-8.438-6.697-8.438-9.745 0-2.21 1.512-3.878 3.516-3.878 2.606 0 3.529 3.06 3.57 3.198a1.407 1.407 0 0 0 2.706-.006c.009-.032.924-3.192 3.568-3.192 2.004 0 3.515 1.667 3.515 3.878 0 3.05-3.291 5.398-8.437 9.745Z"/><path d="M46.593 45.188h-4.218V23.345l.024.017a1.406 1.406 0 0 0 1.944-.299l3.376-4.499a1.41 1.41 0 0 0-.302-1.984L24.83.272a1.406 1.406 0 0 0-1.656-.003l-9.111 6.579V4.22c0-.777-.63-1.407-1.407-1.407H7.031c-.776 0-1.406.63-1.406 1.407v8.72L.583 16.58a1.406 1.406 0 0 0-.301 1.984l3.375 4.499a1.406 1.406 0 0 0 1.944.299l.024-.017v21.843H1.406a1.406 1.406 0 1 0 0 2.813h45.187a1.406 1.406 0 0 0 0-2.813ZM8.437 5.626h2.813v3.253l-2.813 2.03V5.626ZM5.082 20.274l-1.69-2.252L24 3.142l20.61 14.88-1.69 2.252L24.822 7.298a1.406 1.406 0 0 0-1.645 0c-.319.23-17.694 12.688-18.096 12.976Zm3.356 1.054C18.767 13.92 22.587 11.183 24 10.168c1.91 1.37 7.12 5.107 15.563 11.16v23.86H8.436v-23.86Z"/></g><defs><clipPath id="ala"><path fill="#fff" d="M0 0h48v48H0z"/></clipPath></defs></svg><svg fill="none" viewBox="0 0 20 20" id="linked-in" xmlns="http://www.w3.org/2000/svg"><path d="M18.33 18.333h.003V12.22c0-2.99-.643-5.294-4.14-5.294-1.68 0-2.808.923-3.268 1.797h-.049V7.206H7.562v11.127h3.451v-5.51c0-1.45.275-2.854 2.072-2.854 1.77 0 1.796 1.656 1.796 2.947v5.417h3.448ZM1.942 7.206h3.455v11.127H1.942V7.206ZM3.668 1.667a2.002 2.002 0 0 0-2.001 2.001c0 1.105.896 2.02 2.001 2.02s2.001-.915 2.001-2.02a2.003 2.003 0 0 0-2-2.001Z" fill="#fff"/></svg><svg fill="none" viewBox="0 0 24 24" id="messanger" xmlns="http://www.w3.org/2000/svg"><path d="M12 2C6.478 2 2 6.145 2 11.259c0 2.913 1.454 5.512 3.726 7.21V22l3.405-1.869c.909.252 1.871.388 2.869.388 5.523 0 10-4.145 10-9.259C22 6.146 17.523 2 12 2Zm.994 12.469-2.546-2.716-4.97 2.716 5.467-5.803 2.609 2.716 4.906-2.716-5.466 5.803Z" fill="#fff"/></svg><svg fill="none" viewBox="0 0 24 24" id="more" xmlns="http://www.w3.org/2000/svg"><path fill-rule="evenodd" clip-rule="evenodd" d="M2.1 2a1 1 0 0 1 1 1v4.436A9.999 9.999 0 0 1 12 2c4.355 0 8.058 2.784 9.43 6.667a1 1 0 1 1-1.885.666A8.004 8.004 0 0 0 5.07 8H8.1a1 1 0 1 1 0 2h-6a1 1 0 0 1-1-1V3a1 1 0 0 1 1-1ZM3.177 14.057a1 1 0 0 1 1.276.61A8.004 8.004 0 0 0 18.928 16h-3.03a1 1 0 1 1 0-2h6a1 1 0 0 1 1 1v6a1 1 0 1 1-2 0v-4.436a9.999 9.999 0 0 1-8.9 5.436c-4.356 0-8.059-2.784-9.43-6.667a1 1 0 0 1 .609-1.276Z" fill="#424551"/></svg><svg fill="none" viewBox="0 0 20 20" id="mute" xmlns="http://www.w3.org/2000/svg"><path fill-rule="evenodd" clip-rule="evenodd" d="M12 15.583c.584.417 1.334.084 1.334-.666v-3.75L10.25 14.25 12 15.583ZM17.25 4.417a.805.805 0 0 0-1.166 0l-2.75 2.75V5.083c0-.666-.834-1.083-1.334-.666L9.667 6.333c-.333.167-.667.334-1.083.334H6.667C5.75 6.667 5 7.417 5 8.333v3.334c0 .916.75 1.666 1.667 1.666h.5l-2.75 2.75a.806.806 0 0 0 0 1.167.806.806 0 0 0 1.167 0L17.25 5.583a.805.805 0 0 0 0-1.166Z" fill="#fff"/></svg><svg fill="none" viewBox="0 0 16 17" id="outline" xmlns="http://www.w3.org/2000/svg"><path fill-rule="evenodd" clip-rule="evenodd" d="M8 5.667a1.333 1.333 0 1 0 0 2.666 1.333 1.333 0 0 0 0-2.666ZM5.333 7a2.667 2.667 0 1 1 5.334 0 2.667 2.667 0 0 1-5.334 0Z" fill="#787A80"/><path fill-rule="evenodd" clip-rule="evenodd" d="M8 2.667c-2.413 0-4.333 1.89-4.333 4.18 0 1.865 1.121 3.75 2.347 5.232A18.602 18.602 0 0 0 8 14.127a18.602 18.602 0 0 0 1.986-2.048c1.226-1.482 2.347-3.367 2.347-5.233 0-2.289-1.92-4.18-4.333-4.18ZM8 15l-.413.523-.002-.001-.003-.003-.013-.01a17.678 17.678 0 0 1-.804-.701 19.933 19.933 0 0 1-1.779-1.88c-1.274-1.54-2.653-3.733-2.653-6.082C2.333 3.782 4.89 1.333 8 1.333s5.667 2.449 5.667 5.513c0 2.35-1.379 4.541-2.653 6.082a19.938 19.938 0 0 1-2.368 2.403 11.933 11.933 0 0 1-.215.178l-.013.01-.003.003-.002.001L8 15Zm0 0 .413.524a.667.667 0 0 1-.826 0L8 15Z" fill="#787A80"/></svg><svg fill="none" viewBox="0 0 19 22" id="play" xmlns="http://www.w3.org/2000/svg"><path d="M18.5 10.134a1 1 0 0 1 0 1.732L2 21.392a1 1 0 0 1-1.5-.866V1.474A1 1 0 0 1 2 .608l16.5 9.526Z" fill="#fff"/></svg><svg fill="none" viewBox="0 0 53 52" id="project" xmlns="http://www.w3.org/2000/svg"><g clip-path="url(#asa)" fill="#FF5A30"><path d="M46.406 3.148a6.097 6.097 0 0 0-5.276 3.047H2.023C1.183 6.195.5 6.877.5 7.72v39.61c0 .84.682 1.523 1.523 1.523h44.383a6.1 6.1 0 0 0 6.094-6.094V9.242a6.1 6.1 0 0 0-6.094-6.094Zm0 42.657H3.546V9.242h36.767v33.516a1.523 1.523 0 0 0 3.046 0 3.05 3.05 0 0 1 3.047-3.047 3.05 3.05 0 0 1 3.047 3.047 3.05 3.05 0 0 1-3.047 3.047Zm3.047-8.323a6.057 6.057 0 0 0-3.047-.818c-1.109 0-2.15.298-3.047.818V9.242a3.05 3.05 0 0 1 3.047-3.047 3.05 3.05 0 0 1 3.047 3.047v28.24Z"/><path d="M35.64 12.29H8.22c-.842 0-1.524.681-1.524 1.523v27.421c0 .842.682 1.524 1.524 1.524h15.234a1.523 1.523 0 0 0 1.524-1.524v-3.047a4.578 4.578 0 0 1 3.046-4.309v7.356c0 .842.683 1.524 1.524 1.524h6.094c.841 0 1.523-.682 1.523-1.524V13.812c0-.84-.682-1.523-1.523-1.523Zm-1.523 27.42H31.07v-7.616c0-.842-.682-1.524-1.523-1.524-4.2 0-7.617 3.417-7.617 7.617v1.524H9.742v-9.14h6.094v4.57a1.524 1.524 0 0 0 3.047 0v-6.094c0-.841-.682-1.524-1.524-1.524H9.742V15.336h9.14v6.094h-4.57a1.523 1.523 0 0 0 0 3.047H26.5a1.523 1.523 0 0 0 0-3.047h-4.57v-6.094h12.187V39.71Z"/></g><defs><clipPath id="asa"><path fill="#fff" transform="translate(.5)" d="M0 0h52v52H0z"/></clipPath></defs></svg><svg fill="none" viewBox="0 0 48 48" id="quality" xmlns="http://www.w3.org/2000/svg"><path d="M44.017 29.719a4.204 4.204 0 0 0 1.077-2.813 4.224 4.224 0 0 0-4.219-4.218h-8.188c.81-2.461 1.157-5.727 1.157-7.126v-1.406a5.632 5.632 0 0 0-5.625-5.625h-1.407c-.645 0-1.207.439-1.364 1.065l-.765 3.065c-1.074 4.292-4.482 9.027-8.009 9.888a4.225 4.225 0 0 0-3.924-2.674H4.312c-.776 0-1.406.63-1.406 1.406v25.313c0 .776.63 1.406 1.406 1.406h8.438a4.223 4.223 0 0 0 3.808-2.405l4.832 1.61c1.58.528 3.226.795 4.892.795h11.78a4.224 4.224 0 0 0 3.923-5.773 4.227 4.227 0 0 0 3.109-4.07 4.203 4.203 0 0 0-1.077-2.813 4.204 4.204 0 0 0 1.077-2.813 4.203 4.203 0 0 0-1.077-2.812ZM14.157 43.78c0 .776-.632 1.407-1.407 1.407H5.719v-22.5h7.031c.775 0 1.406.63 1.406 1.406V43.78Zm23.905-12.656h2.813c.775 0 1.406.63 1.406 1.406 0 .776-.63 1.407-1.406 1.407h-2.813a1.407 1.407 0 0 0 0 2.812h2.813c.775 0 1.406.63 1.406 1.406 0 .776-.63 1.407-1.406 1.407h-2.813a1.407 1.407 0 0 0 0 2.812c.776 0 1.407.63 1.407 1.406 0 .776-.631 1.407-1.407 1.407h-11.78c-1.363 0-2.71-.219-4.003-.65l-5.31-1.77V25.367c2.206-.42 4.365-1.816 6.314-4.103 1.903-2.233 3.446-5.193 4.128-7.92l.5-2h.308a2.816 2.816 0 0 1 2.812 2.812v1.406c0 1.888-.59 5.51-1.346 7.126h-2.872a1.407 1.407 0 0 0 0 2.812h14.062c.775 0 1.406.63 1.406 1.406 0 .776-.63 1.407-1.406 1.407h-2.813a1.407 1.407 0 0 0 0 2.812Z" fill="#FF5A30"/><path d="M9.938 42.375a1.406 1.406 0 1 0 0-2.813 1.406 1.406 0 0 0 0 2.813ZM29.625 0c-.777 0-1.406.63-1.406 1.406v2.907a1.406 1.406 0 0 0 2.812 0V1.405C31.031.63 30.401 0 29.625 0ZM23.659 6.201 21.67 4.213A1.406 1.406 0 1 0 19.681 6.2l1.99 1.99a1.406 1.406 0 0 0 1.988-1.99ZM39.569 4.213c-.55-.55-1.44-.55-1.989 0L35.592 6.2a1.406 1.406 0 1 0 1.988 1.99L39.57 6.2c.55-.549.55-1.44 0-1.988Z" fill="#FF5A30"/></svg><svg fill="none" viewBox="0 0 53 52" id="repairs" xmlns="http://www.w3.org/2000/svg"><path d="M43.36 4.57c0-2.52-2.05-4.57-4.57-4.57H8.32C5.8 0 3.75 2.05 3.75 4.57v9.14c0 2.521 2.05 4.571 4.57 4.571h30.47c2.52 0 4.57-2.05 4.57-4.57v-1.524h1.523c.84 0 1.523.684 1.523 1.524v6.094c0 .84-.683 1.523-1.523 1.523H26.602c-2.52 0-4.57 2.05-4.57 4.57v4.57h-1.524c-.842 0-1.524.683-1.524 1.524v6.011l-1.523 6.192C16.47 48.157 19.464 52 23.555 52c4.092 0 7.083-3.847 6.095-7.8l-1.525-6.197v-6.01c0-.842-.682-1.524-1.523-1.524h-1.524v-4.57c0-.84.684-1.524 1.524-1.524h18.28c2.52 0 4.571-2.05 4.571-4.57V13.71c0-2.52-2.05-4.57-4.57-4.57h-1.524V4.57ZM25.077 33.516v3.148h-3.047v-3.148h3.047Zm-1.523 15.437a3.234 3.234 0 0 1-3.137-4.024l1.284-5.218h3.705l1.285 5.223a3.234 3.234 0 0 1-3.137 4.02ZM8.32 3.047h30.47c.839 0 1.523.683 1.523 1.523v1.524h-4.57c-1.481 0-3.375.554-5.567 1.196-2.961.868-6.317 1.85-9.668 1.85-3.267 0-5.57-.954-7.602-1.795-1.554-.643-3.02-1.251-4.586-1.251H6.797V4.57c0-.84.683-1.523 1.523-1.523ZM40.312 13.71c0 .84-.683 1.523-1.523 1.523H8.32c-.84 0-1.523-.683-1.523-1.523V9.14H8.32c.96 0 2.045.45 3.42 1.019 2.18.903 4.895 2.027 8.768 2.027 3.788 0 7.523-1.094 10.525-1.972 1.885-.553 3.666-1.074 4.71-1.074h4.57v4.57Z" fill="#FF5A30"/></svg><svg fill="none" viewBox="0 0 24 24" id="right" xmlns="http://www.w3.org/2000/svg"><path fill-rule="evenodd" clip-rule="evenodd" d="M14.793 6.793a1 1 0 0 1 1.414 0l4.5 4.5a1 1 0 0 1 0 1.414l-4.5 4.5a1 1 0 0 1-1.414-1.414L17.586 13H4a1 1 0 1 1 0-2h13.586l-2.793-2.793a1 1 0 0 1 0-1.414Z" fill="#424551"/></svg><svg fill="none" viewBox="0 0 16 17" id="share-arrow" xmlns="http://www.w3.org/2000/svg"><path d="m.666 7.829 6.096-6.662V5.14h1.295c4.019 0 7.276 3.247 7.276 7.253V14.5l-.576-.629a10.344 10.344 0 0 0-7.629-3.355h-.366v3.975L.666 7.829Z" fill="#787A80"/></svg><svg fill="none" viewBox="0 0 100 68" id="signature" xmlns="http://www.w3.org/2000/svg"><path fill-rule="evenodd" clip-rule="evenodd" d="M72.1 65.9c-1.2-2.2 3.8-6.1 5.3-8-6.5.2-.3-3.8 3.3-1.8 0 1.3-7.6 9.7-8.6 9.8Zm-3.2-2.3c2.3-.8 7.5-11.4 2.2-6.6.1 2-4.3 4.2-2.2 6.6Zm29.9-30c0 9.8-21.5 17.7-29.1 17.8-3.1 3.1-7.8 14.9-12.9 15.9-2.3-3.6 6.7-15.5 10.1-18.6 0-1.5-4.6.7-2.9-3.8-2 .4-9.2 6.7-8.6 0-3.6 2.2-10 6.9-13.4 2.5-2.1.2-8.6 5.9-9.1.2-3 2.1-2.5 1.9-5.3 1.9-4.8 3.1-19.4 11.9-19.4-.3C11.4 37.5 3.3 54.5 1 48c0-4.9 16.4-27.1 19.3-25 0 1.3-8.5 9.5-10 11.2C9.8 35 .6 47.6 3 47.9c8.4-4.4 11.2-13.8 18.3-18.8 4.4.6-2.3 5.5-4 7.5-3.2 2.3-11.9 14.2-5.3 17.5 6.5 0 10.3-3.5 15.6-6.2 2.8-4.4 6.2-7.4 10.2-10.2 8.5-3.9 14.6-15.1 18.8-23.3 1.2-4 2.7-7.3.2-10.9C46.9-3.9 26.9 7.6 19.2 14c-.8-1 8.4-7.7 10.6-8 4.8-3.7 14.6-6 20.9-6C70.9 2.7 50 29.4 43 36.4c0 .6 1.7 2.1-.5 1.2-1.3.1-8.7 9.5-7.9 11 7.6 0 8-8.3 12.8-12.3.2-1.3 8.4-8.4 9.9-4.5-.5 5-10.4 11.6-14 14.4 0 5.1 12.1-3.1 13.2-3.7.4-.6 6.2-7.5 6.2-7.5-4.6-1.4-3.3-2.5 1.1-1.3 2.2-.4 3.4-4.7 6.1-3.2 0 3-6.8 5.7 4 3.8.8-.8 5.1-4.8 4.9-1.5-3.2 2.7 7.7.1 9.4-1.8 4.2 2.7-10.4 4.4-12.4 4.6-2 1.3-11 8.4-10.6 11.3 4.2 0 10.4-7.1 13.5-9.8.9-.1 1.2.7 2.1.5 3.4-2.6 15-9.4 18-4ZM44 43.8c2.3-1.3 12.1-9 11.8-11.6-2.8-.3-12.7 9.4-11.8 11.6Zm-10.1-.9c.3-.2.6-.3 1-.5 1.4-1.9-.7-.4-1 .5Zm28.4-5.2c.7-.7 1.5-1.4 2.2-2-.3-.8-2 1.4-2.2 2Zm7 .6c4.6-3.2 1.7-2.5-3.1-2.6-2.6 2.6-9.5 6.9-9.3 11 4.2-.7 9.8-5.2 12.4-8.4Zm-1 12.7c-.8-4.7-9.7 11.4-10.3 13.9 4.2-4 7.2-9.2 10.3-13.9Zm2.2-4c-.6.5-2.2 1.5-1.5 2.4.5-.5 1.5-1.7 1.5-2.4Zm26.4-13.7c-7.4-2.3-24.3 9.6-26.3 16.9C78 49.8 85.7 45 92 41.4c1.4-1.3 7.4-6.1 4.9-8.1Z" fill="#FF5A30"/></svg><svg fill="none" viewBox="0 0 24 24" id="twitter" xmlns="http://www.w3.org/2000/svg"><path d="M22.5 5.772a8.902 8.902 0 0 1-2.474.65 4.18 4.18 0 0 0 1.894-2.28 8.922 8.922 0 0 1-2.737 1.001 4.387 4.387 0 0 0-3.145-1.303c-2.379 0-4.308 1.847-4.308 4.124 0 .323.038.638.112.94-3.58-.172-6.754-1.815-8.879-4.31a3.961 3.961 0 0 0-.583 2.073c0 1.431.762 2.694 1.916 3.433a4.455 4.455 0 0 1-1.95-.518v.052c0 1.998 1.485 3.665 3.454 4.044-.36.093-.741.145-1.135.145-.278 0-.547-.027-.81-.077.548 1.64 2.138 2.832 4.023 2.865a8.89 8.89 0 0 1-5.35 1.763c-.348 0-.69-.02-1.028-.056a12.572 12.572 0 0 0 6.603 1.855c7.925 0 12.257-6.285 12.257-11.735l-.015-.534A8.412 8.412 0 0 0 22.5 5.772Z" fill="#fff"/></svg><svg fill="none" viewBox="0 0 20 20" id="twitter-contrast" xmlns="http://www.w3.org/2000/svg"><path d="M18.75 4.81a7.419 7.419 0 0 1-2.061.542 3.483 3.483 0 0 0 1.578-1.9 7.435 7.435 0 0 1-2.281.834 3.655 3.655 0 0 0-2.62-1.086c-1.983 0-3.59 1.54-3.59 3.437 0 .269.03.531.092.783C6.885 7.276 4.24 5.908 2.47 3.828a3.301 3.301 0 0 0-.485 1.728c0 1.193.634 2.245 1.596 2.86a3.712 3.712 0 0 1-1.626-.43v.042c0 1.665 1.238 3.054 2.88 3.37-.301.078-.618.121-.946.121-.232 0-.456-.022-.676-.064.457 1.367 1.782 2.36 3.353 2.388a7.409 7.409 0 0 1-4.459 1.469c-.29 0-.575-.017-.856-.047a10.476 10.476 0 0 0 5.503 1.546c6.604 0 10.213-5.237 10.213-9.78l-.012-.445A7.01 7.01 0 0 0 18.75 4.81Z" fill="#fff"/></svg><svg fill="none" viewBox="0 0 24 24" id="up-chevron" xmlns="http://www.w3.org/2000/svg"><path fill-rule="evenodd" clip-rule="evenodd" d="M4.293 15.707a1 1 0 0 1 0-1.414l7-7a1 1 0 0 1 1.414 0l7 7a1 1 0 0 1-1.414 1.414L12 9.414l-6.293 6.293a1 1 0 0 1-1.414 0Z" fill="#fff"/></svg><svg fill="none" viewBox="0 0 24 24" id="whatsapp" xmlns="http://www.w3.org/2000/svg"><path d="M22 11.742c0 5.381-4.395 9.743-9.818 9.743a9.835 9.835 0 0 1-4.746-1.212L2 22l1.772-5.227a9.64 9.64 0 0 1-1.409-5.03C2.363 6.361 6.76 2 12.182 2 17.605 2 22 6.362 22 11.742Zm-9.818-8.19c-4.552 0-8.255 3.674-8.255 8.19 0 1.793.584 3.452 1.573 4.803l-1.032 3.042 3.172-1.009a8.25 8.25 0 0 0 4.542 1.355c4.551 0 8.255-3.674 8.255-8.19 0-4.517-3.703-8.191-8.255-8.191Zm4.958 10.434c-.06-.1-.221-.16-.462-.278-.24-.12-1.424-.698-1.644-.777-.22-.08-.382-.12-.542.12-.16.238-.621.776-.762.935-.14.16-.28.18-.522.06-.24-.119-1.015-.371-1.935-1.185-.715-.633-1.198-1.414-1.339-1.653-.14-.24-.014-.368.106-.487.108-.107.24-.279.361-.418.12-.14.16-.24.24-.399.081-.16.041-.298-.02-.418-.06-.12-.541-1.295-.742-1.773-.2-.478-.4-.398-.541-.398-.14 0-.3-.02-.461-.02-.16 0-.422.06-.642.299-.22.239-.842.816-.842 1.991 0 1.175.862 2.31.982 2.47.12.159 1.665 2.649 4.111 3.605 2.447.956 2.447.637 2.889.597.44-.04 1.423-.578 1.625-1.135.2-.558.2-1.036.14-1.136Z" fill="#fff"/></svg><svg fill="none" viewBox="0 0 24 24" id="youtube" xmlns="http://www.w3.org/2000/svg"><path fill-rule="evenodd" clip-rule="evenodd" d="M21.39 4.114a3.007 3.007 0 0 1 2.116 2.115c.514 1.878.494 5.793.494 5.793s0 3.894-.494 5.772a3.007 3.007 0 0 1-2.116 2.116c-1.878.494-9.39.494-9.39.494s-7.493 0-9.39-.514a3.008 3.008 0 0 1-2.116-2.115C0 15.916 0 12.002 0 12.002s0-3.895.494-5.773A3.068 3.068 0 0 1 2.61 4.094C4.488 3.6 12 3.6 12 3.6s7.513 0 9.391.514Zm-5.535 7.888L9.608 15.6V8.404l6.247 3.598Z" fill="#fff"/></svg></svg>